<svg xmlns="http://www.w3.org/2000/svg" width="95.579" height="95.579" viewBox="0 0 95.579 95.579">
  <g id="_001-hands" data-name="001-hands" transform="translate(0 0)">
    <path id="Path_207" data-name="Path 207" d="M332.734,361.867A1.867,1.867,0,1,1,330.867,360,1.867,1.867,0,0,1,332.734,361.867Zm0,0" transform="translate(-267.583 -292.796)"/>
    <path id="Path_208" data-name="Path 208" d="M166.734,361.867A1.867,1.867,0,1,1,164.867,360,1.867,1.867,0,0,1,166.734,361.867Zm0,0" transform="translate(-132.572 -292.796)"/>
    <path id="Path_209" data-name="Path 209" d="M167.867,142.4h29.868a1.867,1.867,0,0,0,1.867-1.867V136.8a16.8,16.8,0,0,0-33.6,0v3.734A1.867,1.867,0,0,0,167.867,142.4Zm1.867-5.6a13.067,13.067,0,0,1,26.135,0v1.867H169.734Zm0,0" transform="translate(-135.012 -97.599)"/>
    <path id="Path_210" data-name="Path 210" d="M218.4,11.2a11.2,11.2,0,1,0-11.2,11.2A11.213,11.213,0,0,0,218.4,11.2Zm-11.2,7.467a7.467,7.467,0,1,1,7.467-7.467A7.475,7.475,0,0,1,207.2,18.668Zm0,0" transform="translate(-159.411)"/>
    <path id="Path_211" data-name="Path 211" d="M2.183,138.765,18.8,158.038a1.864,1.864,0,0,1,.424,1.183v15.823a1.867,1.867,0,0,0,1.867,1.867H44.056a1.867,1.867,0,0,0,1.867-1.867V149.762a9.274,9.274,0,0,0-2.735-6.6l-.029-.028L29.867,130.4a12.432,12.432,0,0,0-14.373-2.3V113.067C15.494,105.753,8.988,100,1.867,100A1.867,1.867,0,0,0,0,101.866v30.9a9.354,9.354,0,0,0,2.163,5.976l.02.024Zm1.55-34.848c4.39.863,8.027,4.629,8.027,9.15v18.672a1.888,1.888,0,0,0,.547,1.315l13.39,13.39a1.867,1.867,0,1,0,2.64-2.64L16.412,131.879a8.707,8.707,0,0,1,10.83,1.175l13.319,12.76a5.565,5.565,0,0,1,1.628,3.948v23.415H22.961V159.221a5.6,5.6,0,0,0-1.3-3.586l-.018-.022L5.022,136.34a5.614,5.614,0,0,1-1.289-3.575Zm0,0" transform="translate(0 -81.332)"/>
    <path id="Path_212" data-name="Path 212" d="M310.056,100c-7.387,0-13.627,5.984-13.627,13.067V128.1a12.449,12.449,0,0,0-14.373,2.3s-13.312,12.751-13.321,12.761a9.271,9.271,0,0,0-2.735,6.6v25.282a1.867,1.867,0,0,0,1.867,1.867h22.961a1.867,1.867,0,0,0,1.867-1.867V159.221a1.863,1.863,0,0,1,.424-1.183l16.641-19.3a9.354,9.354,0,0,0,2.163-5.976v-30.9A1.867,1.867,0,0,0,310.056,100Zm-1.867,32.766a5.614,5.614,0,0,1-1.289,3.575l-16.638,19.294a5.6,5.6,0,0,0-1.3,3.586v13.956H269.734V149.763a5.567,5.567,0,0,1,1.628-3.948l13.32-12.76a8.708,8.708,0,0,1,10.83-1.175L283.585,143.8a1.867,1.867,0,0,0,2.64,2.64l13.39-13.39a1.882,1.882,0,0,0,.547-1.315V113.067c0-4.374,3.578-8.276,8.027-9.151Zm0,0" transform="translate(-216.344 -81.332)"/>
  </g>
</svg>
