<svg id="_002-rating" data-name="002-rating" xmlns="http://www.w3.org/2000/svg" width="101.95" height="95.578" viewBox="0 0 101.95 95.578">
  <path id="Path_213" data-name="Path 213" d="M249.982,381.991A1.991,1.991,0,1,1,247.991,380,1.991,1.991,0,0,1,249.982,381.991Zm0,0" transform="translate(-197.016 -304.334)"/>
  <path id="Path_214" data-name="Path 214" d="M382.895,251.947a11.947,11.947,0,1,0-11.947,11.947A11.96,11.96,0,0,0,382.895,251.947Zm-11.947,7.965a7.965,7.965,0,1,1,7.965-7.965A7.974,7.974,0,0,1,370.947,259.912Zm0,0" transform="translate(-287.515 -192.211)"/>
  <path id="Path_215" data-name="Path 215" d="M83.432,343.982A19.457,19.457,0,0,0,70,349.443a23.89,23.89,0,0,0-38.053,0,19.462,19.462,0,0,0-13.431-5.46C8.481,343.982,0,352.189,0,361.9v3.982a1.991,1.991,0,0,0,1.991,1.991H99.959a1.991,1.991,0,0,0,1.991-1.991V361.9C101.95,352.189,93.47,343.982,83.432,343.982ZM3.982,361.9c0-7.556,6.657-13.939,14.536-13.939a15.2,15.2,0,0,1,11.234,4.947,23.9,23.9,0,0,0-2.672,10.983H3.982Zm46.993-17.921a19.907,19.907,0,0,1,19.912,19.912H31.063A19.93,19.93,0,0,1,50.975,343.982Zm46.993,19.912H74.87A23.9,23.9,0,0,0,72.2,352.912a15.2,15.2,0,0,1,11.234-4.947c7.879,0,14.536,6.383,14.536,13.939Zm0,0" transform="translate(0 -272.298)"/>
  <path id="Path_216" data-name="Path 216" d="M56.895,251.947a11.947,11.947,0,1,0-11.947,11.947A11.96,11.96,0,0,0,56.895,251.947Zm-11.947,7.965a7.965,7.965,0,1,1,7.965-7.965A7.974,7.974,0,0,1,44.947,259.912Zm0,0" transform="translate(-26.429 -192.211)"/>
  <path id="Path_217" data-name="Path 217" d="M207.86,195.93a15.93,15.93,0,1,0-15.93,15.93A15.948,15.948,0,0,0,207.86,195.93Zm-15.93,11.947a11.947,11.947,0,1,1,11.947-11.947A11.96,11.96,0,0,1,191.93,207.877Zm0,0" transform="translate(-140.954 -144.158)"/>
  <path id="Path_218" data-name="Path 218" d="M207.409,11.581a1.99,1.99,0,0,0-1.608-1.355l-8.589-1.247-3.846-7.862a1.991,1.991,0,0,0-3.577,0l-3.845,7.863-8.589,1.246a1.991,1.991,0,0,0-1.1,3.4l6.219,6.062L181,28.243a1.992,1.992,0,0,0,2.89,2.1l7.685-4.041,7.688,4.041a1.991,1.991,0,0,0,2.889-2.1l-1.469-8.559,6.219-6.062a1.991,1.991,0,0,0,.5-2.041Zm-10.253,5.981a1.991,1.991,0,0,0-.572,1.763l.964,5.615-5.042-2.651a1.992,1.992,0,0,0-1.854,0l-5.04,2.651.963-5.615A1.993,1.993,0,0,0,186,17.562l-4.079-3.975,5.635-.818a1.989,1.989,0,0,0,1.5-1.1l2.519-5.149,2.518,5.149a1.989,1.989,0,0,0,1.5,1.1l5.636.818Zm0,0" transform="translate(-140.675 0)"/>
  <path id="Path_219" data-name="Path 219" d="M389.176,98.584a1.99,1.99,0,0,0-1.608-1.355l-5.819-.845-2.6-5.274A1.989,1.989,0,0,0,377.363,90h0a1.99,1.99,0,0,0-1.785,1.11l-2.6,5.274-5.82.845a1.991,1.991,0,0,0-1.1,3.4l4.21,4.106-.994,5.795a1.992,1.992,0,0,0,2.889,2.1l5.207-2.736,5.205,2.736a1.992,1.992,0,0,0,2.889-2.1l-.994-5.795,4.211-4.106A1.99,1.99,0,0,0,389.176,98.584Zm-8.243,4.027a1.987,1.987,0,0,0-.572,1.762l.488,2.85-2.56-1.345a1.991,1.991,0,0,0-1.853,0l-2.562,1.346.489-2.851a1.992,1.992,0,0,0-.572-1.762l-2.072-2.021,2.863-.415a1.992,1.992,0,0,0,1.5-1.089l1.28-2.594,1.28,2.593a1.991,1.991,0,0,0,1.5,1.09l2.863.415Zm0,0" transform="translate(-292.68 -72.079)"/>
  <path id="Path_220" data-name="Path 220" d="M49.176,98.584a1.99,1.99,0,0,0-1.608-1.355l-5.819-.845-2.6-5.274a1.991,1.991,0,0,0-3.571,0l-2.6,5.274-5.82.845a1.991,1.991,0,0,0-1.1,3.4l4.21,4.106-.993,5.795a1.992,1.992,0,0,0,2.889,2.1l5.206-2.736,5.205,2.736a1.992,1.992,0,0,0,2.889-2.1l-.994-5.795,4.211-4.106a1.99,1.99,0,0,0,.5-2.041Zm-8.244,4.027a1.992,1.992,0,0,0-.572,1.762l.489,2.85-2.561-1.345a1.989,1.989,0,0,0-1.852,0l-2.563,1.346.489-2.851a1.989,1.989,0,0,0-.572-1.762l-2.072-2.021,2.864-.415a1.992,1.992,0,0,0,1.5-1.089l1.28-2.594,1.28,2.593a1.991,1.991,0,0,0,1.5,1.09L43,100.59Zm0,0" transform="translate(-20.382 -72.079)"/>
  <path id="Path_221" data-name="Path 221" d="M287.412,391.777a1.991,1.991,0,0,0-2.186,3.328,12.017,12.017,0,0,1,4.255,4.876,1.991,1.991,0,0,0,3.6-1.711,15.993,15.993,0,0,0-5.665-6.493Zm0,0" transform="translate(-227.712 -313.503)"/>
</svg>
