<svg xmlns="http://www.w3.org/2000/svg" width="85.871" height="95.578" viewBox="0 0 85.871 95.578">
  <g id="_003-idea" data-name="003-idea" transform="translate(0 0)">
    <path id="Path_222" data-name="Path 222" d="M134.183,141.871A1.867,1.867,0,1,1,132.316,140,1.867,1.867,0,0,1,134.183,141.871Zm0,0" transform="translate(-106.19 -113.869)"/>
    <path id="Path_223" data-name="Path 223" d="M153.2,43.737a1.867,1.867,0,1,0,0-3.734,18.7,18.7,0,0,0-17.621,12.508,1.867,1.867,0,1,0,3.524,1.234,14.96,14.96,0,0,1,14.1-10.008Zm0,0" transform="translate(-110.28 -32.536)"/>
    <path id="Path_224" data-name="Path 224" d="M.5,121.827a1.867,1.867,0,0,0,1.867,1.867H9.834a1.867,1.867,0,0,0,1.867-1.867A1.83,1.83,0,0,0,9.834,120H2.367A1.83,1.83,0,0,0,.5,121.827Zm0,0" transform="translate(-0.5 -97.602)"/>
    <path id="Path_225" data-name="Path 225" d="M411.7,121.827A1.83,1.83,0,0,0,409.83,120h-7.467a1.83,1.83,0,0,0-1.867,1.824,1.867,1.867,0,0,0,1.867,1.867h7.467A1.867,1.867,0,0,0,411.7,121.827Zm0,0" transform="translate(-325.826 -97.602)"/>
    <path id="Path_226" data-name="Path 226" d="M32.779,216.988l6.466-3.734a1.867,1.867,0,0,0-1.867-3.233l-6.466,3.734a1.867,1.867,0,0,0,1.867,3.233Zm0,0" transform="translate(-24.475 -170.611)"/>
    <path id="Path_227" data-name="Path 227" d="M383.785,10.022l-6.467,3.734a1.867,1.867,0,0,0,1.867,3.233l6.467-3.734a1.867,1.867,0,0,0-1.867-3.233Zm0,0" transform="translate(-306.216 -7.948)"/>
    <path id="Path_228" data-name="Path 228" d="M30.229,10.707a1.866,1.866,0,0,0,.683,2.55l6.466,3.734a1.867,1.867,0,0,0,1.867-3.233l-6.466-3.734a1.868,1.868,0,0,0-2.55.683Zm0,0" transform="translate(-24.475 -7.949)"/>
    <path id="Path_229" data-name="Path 229" d="M383.785,216.989a1.867,1.867,0,0,0,1.867-3.233l-6.467-3.734a1.867,1.867,0,0,0-1.867,3.233Zm0,0" transform="translate(-306.216 -170.612)"/>
    <path id="Path_230" data-name="Path 230" d="M20.83,94.841a1.865,1.865,0,0,0,1.486.738h74.67a1.867,1.867,0,0,0,1.8-2.368s-4.367-15.677-4.371-15.688a9.362,9.362,0,0,0-6.8-6.405L66.334,66.113a11.162,11.162,0,0,0,4.517-8.989c0-3.433,1.745-7.969,4.737-10.272A26.1,26.1,0,0,0,85.779,25.621,26.435,26.435,0,0,0,60.036,0,26.137,26.137,0,0,0,43.875,46.975c2.8,2.123,4.576,6.516,4.576,10.149a11.191,11.191,0,0,0,4.524,8.987L31.69,71.118a9.361,9.361,0,0,0-6.8,6.405c0,.012-4.371,15.688-4.371,15.688a1.864,1.864,0,0,0,.312,1.63ZM59.651,74.824l-4.679-5.347,4.679-1.1,4.679,1.1Zm-8.793-4.38,5.986,6.841L49.3,82.314,44.936,71.838Zm17.586,0,5.922,1.394L70,82.314l-7.543-5.029Zm-1.349-12.76a7.464,7.464,0,0,1-14.887,0ZM46.13,44A22.4,22.4,0,0,1,59.982,3.737,22.857,22.857,0,0,1,82.046,25.692a22.228,22.228,0,0,1-8.737,18.2,17.142,17.142,0,0,0-5.864,10.057H61.518V37.806l3.839-3.7a1.867,1.867,0,0,0-2.592-2.686l-3.114,3-3.113-3A1.867,1.867,0,1,0,53.945,34.1l3.839,3.7V53.951H51.869A16.691,16.691,0,0,0,46.13,44ZM28.469,78.58a5.616,5.616,0,0,1,4.076-3.828L41.252,72.7l5.475,13.14a1.867,1.867,0,0,0,2.759.835L59.651,79.9l10.164,6.777a1.867,1.867,0,0,0,2.759-.835L78.049,72.7l8.707,2.048a5.616,5.616,0,0,1,4.076,3.828l3.7,13.266H24.774Zm0,0" transform="translate(-16.725 -0.001)"/>
  </g>
</svg>
