<svg xmlns="http://www.w3.org/2000/svg" xmlns:xlink="http://www.w3.org/1999/xlink" width="90.871" height="32.318" viewBox="0 0 90.871 32.318">
  <defs>
    <clipPath id="clip-path">
      <rect width="90.87" height="32.318" fill="none"/>
    </clipPath>
  </defs>
  <g id="Repeat_Grid_1" data-name="Repeat Grid 1" transform="translate(0 0)" clip-path="url(#clip-path)">
    <g id="Group_132" data-name="Group 132">
      <path id="Path_46" data-name="Path 46" d="M54.731,47.975h1.7a.2.2,0,1,0,0-.4h-1.7a.2.2,0,1,0,0,.4Zm.849,14.891a.885.885,0,1,0,.884.886.885.885,0,0,0-.884-.886Zm-4.335-.757h8.672V49.283H51.245ZM79.05,57.9a1.726,1.726,0,0,0-1.118.408,1.916,1.916,0,0,0-.657,1.077,2.228,2.228,0,0,0-.076.51v1.249a2,2,0,0,0,.5,1.384,1.672,1.672,0,0,0,1.3.561,1.706,1.706,0,0,0,1.468-.725A3.2,3.2,0,0,0,81,60.444a3.08,3.08,0,0,0-.492-1.8A1.718,1.718,0,0,0,79.05,57.9Zm30.412-.1a1.667,1.667,0,0,0-1.525.892,3.368,3.368,0,0,0-.449,1.8,3.317,3.317,0,0,0,.449,1.771,1.676,1.676,0,0,0,1.513.891,1.657,1.657,0,0,0,1.493-.91,3.3,3.3,0,0,0,.466-1.781,3.361,3.361,0,0,0-.446-1.769,1.658,1.658,0,0,0-1.5-.892Zm-22.167.1a1.724,1.724,0,0,0-1.118.408,1.924,1.924,0,0,0-.658,1.077,2.189,2.189,0,0,0-.075.51v1.249a2,2,0,0,0,.5,1.384,1.671,1.671,0,0,0,1.3.561,1.7,1.7,0,0,0,1.469-.725,3.189,3.189,0,0,0,.527-1.916,3.093,3.093,0,0,0-.494-1.8,1.722,1.722,0,0,0-1.453-.744ZM70.067,55.213h-.029c-.1.442-.267,1.095-.5,1.961l-.865,2.718H71.47l-.876-2.718Q70.452,56.755,70.067,55.213Zm52.04,2.5a1.6,1.6,0,0,0-1.327.682,2.475,2.475,0,0,0-.494,1.294h3.473a2.285,2.285,0,0,0-.323-1.28,1.465,1.465,0,0,0-1.329-.7Zm-44.687-7.4a.678.678,0,0,0,.023-.215v-.531c-.69-.008-1.348.135-1.348.722a.512.512,0,0,0,.555.556.8.8,0,0,0,.77-.532Zm-9.1-2.428c-.1-.325-.191-.69-.27-1h-.017c-.079.309-.166.682-.254,1L67.369,49.2h1.373Zm55.324-.381a1.68,1.68,0,0,1,1.667,1.881,2.385,2.385,0,0,1-.032.413h-2.587a1.046,1.046,0,0,0,1.19,1,3.1,3.1,0,0,0,1.071-.175l.143.667a3.477,3.477,0,0,1-1.349.246,1.828,1.828,0,0,1-1.992-1.952,1.913,1.913,0,0,1,1.889-2.079Zm-15.488.087.047.579h.024a1.417,1.417,0,0,1,1.238-.667c.675,0,1.373.436,1.373,1.658V51.45h-.976V49.268c0-.555-.207-.976-.738-.976a.82.82,0,0,0-.762.571.9.9,0,0,0-.047.31V51.45h-.976V48.737c0-.445-.016-.817-.032-1.151ZM97.909,47.5a1.68,1.68,0,0,1,1.667,1.881,2.387,2.387,0,0,1-.032.413H96.957a1.046,1.046,0,0,0,1.19,1,3.106,3.106,0,0,0,1.071-.175l.143.667a3.477,3.477,0,0,1-1.349.246,1.828,1.828,0,0,1-1.992-1.952A1.913,1.913,0,0,1,97.909,47.5Zm-4-1.682h.975V51.45h-.975Zm-7.741,2.372a2.045,2.045,0,0,0-1.039.286l-.191-.635a2.78,2.78,0,0,1,1.4-.341,1.448,1.448,0,0,1,1.6,1.634v1.389a5.239,5.239,0,0,0,.063.928h-.881l-.071-.428h-.024a1.414,1.414,0,0,1-1.143.516,1.147,1.147,0,0,1-1.214-1.151c0-.968.865-1.468,2.293-1.46v-.064c0-.254-.1-.675-.785-.675ZM80.4,45.975a.528.528,0,1,1-.547.532.521.521,0,0,1,.547-.532Zm.484,1.611V51.45h-.975V47.586ZM67.456,46.1H68.7L70.44,51.45H69.385L68.9,49.935H67.21l-.46,1.516H65.742Zm-6.5,17.735a1.71,1.71,0,0,1-1.71,1.706H51.917a1.71,1.71,0,0,1-1.711-1.706V47.55a1.712,1.712,0,0,1,1.711-1.708h7.329a1.712,1.712,0,0,1,1.71,1.708Zm11.781.391-.972-3.054H68.384l-.927,3.054H65.73l3.347-10.4h2.071l3.367,10.4Zm.379-12.778h-.961L70.72,47.586h1.056l.626,1.96c.111.341.191.651.262.968h.024c.071-.318.159-.62.262-.968l.619-1.96h1.024Zm2.009-1.063c0-.968.865-1.468,2.293-1.46v-.064c0-.254-.1-.675-.786-.675a2.047,2.047,0,0,0-1.039.286L75.4,47.84a2.781,2.781,0,0,1,1.4-.341,1.448,1.448,0,0,1,1.6,1.634v1.389a5.18,5.18,0,0,0,.063.928h-.881l-.071-.428h-.024a2.571,2.571,0,0,1-1.143.516,1.147,1.147,0,0,1-1.214-1.151Zm6.528,13.025a3.055,3.055,0,0,1-2.312.985A2.308,2.308,0,0,1,77.2,63.331v3.94H75.534v-8.08q0-1.2-.064-2.466h1.467l.092,1.189h.029a2.974,2.974,0,0,1,4.752-.291,4.142,4.142,0,0,1,.887,2.763,4.242,4.242,0,0,1-1.042,3.027ZM83.389,51.45h-.975V45.816h.975ZM89.9,63.412a3.055,3.055,0,0,1-2.313.985,2.308,2.308,0,0,1-2.14-1.067v3.94H83.776v-8.08q0-1.2-.062-2.466h1.463l.1,1.189H85.3a2.97,2.97,0,0,1,4.748-.291,4.125,4.125,0,0,1,.888,2.763A4.242,4.242,0,0,1,89.9,63.412Zm1.145-11.874a1.329,1.329,0,0,1-1.222-.667H89.8l-.047.579h-.833c.016-.262.032-.69.032-1.087V45.816h.975v2.3h.016a1.4,1.4,0,0,1,1.238-.619c.945,0,1.619.786,1.611,1.96a1.851,1.851,0,0,1-1.754,2.079Zm8.392,11.933a4.106,4.106,0,0,1-2.835.91,4.971,4.971,0,0,1-2.7-.647l.387-1.389a4.656,4.656,0,0,0,2.405.648,2.286,2.286,0,0,0,1.468-.424,1.388,1.388,0,0,0,.523-1.139,1.456,1.456,0,0,0-.431-1.061,4.074,4.074,0,0,0-1.435-.8q-2.73-1.016-2.731-2.977a2.626,2.626,0,0,1,.962-2.1,3.826,3.826,0,0,1,2.556-.817,5.088,5.088,0,0,1,2.363.493l-.421,1.359a4.127,4.127,0,0,0-2-.479,2.073,2.073,0,0,0-1.38.43,1.251,1.251,0,0,0-.416.945,1.288,1.288,0,0,0,.478,1.021,5.473,5.473,0,0,0,1.511.8,5.072,5.072,0,0,1,1.978,1.267,2.65,2.65,0,0,1,.633,1.8,2.78,2.78,0,0,1-.923,2.161Zm5.877-5.5h-1.84v3.647c0,.925.327,1.385.975,1.385a3.037,3.037,0,0,0,.74-.073l.047,1.263a3.767,3.767,0,0,1-1.3.186,1.987,1.987,0,0,1-1.543-.6,2.927,2.927,0,0,1-.558-2.021V57.974h-1.095V56.725h1.095V55.351l1.635-.494v1.867h1.84Zm-.94-6.436a1.869,1.869,0,0,1-1.937-1.992,1.908,1.908,0,0,1,2-2.048,1.854,1.854,0,0,1,1.921,1.984,1.915,1.915,0,0,1-1.984,2.055Zm7.78,11.72A3.538,3.538,0,0,1,109.4,64.4a3.359,3.359,0,0,1-2.636-1.1,4,4,0,0,1-.978-2.764,4.078,4.078,0,0,1,1.01-2.855,3.49,3.49,0,0,1,2.723-1.109,3.417,3.417,0,0,1,2.659,1.1,3.952,3.952,0,0,1,.956,2.746,4.118,4.118,0,0,1-.986,2.843Zm1.723-15.672h.547v-.722l.961-.27v.992h.928v.73h-.928v1.706c0,.476.127.714.5.714a1.284,1.284,0,0,0,.381-.04l.016.738a2.146,2.146,0,0,1-.706.1,1.118,1.118,0,0,1-.842-.318,1.523,1.523,0,0,1-.31-1.087V48.316h-.547Zm4.279,10.605a2.964,2.964,0,0,0-.525-.042,1.578,1.578,0,0,0-1.358.663,2.478,2.478,0,0,0-.417,1.48v3.936h-1.667V59.085q0-1.29-.045-2.36h1.451l.062,1.436h.046a2.523,2.523,0,0,1,.833-1.186,2,2,0,0,1,1.206-.4,2.616,2.616,0,0,1,.414.028Zm.253-9.058V51.45h-.975V45.816h.975V48.11h.016a1.284,1.284,0,0,1,.484-.436,1.372,1.372,0,0,1,.675-.175c.659,0,1.349.436,1.349,1.674V51.45h-.977V49.276c0-.555-.207-.984-.746-.984a.814.814,0,0,0-.762.548.87.87,0,0,0-.04.293Zm6.881,11.748h-5a2.168,2.168,0,0,0,.727,1.695,2.467,2.467,0,0,0,1.635.526,5.452,5.452,0,0,0,2.022-.358l.263,1.159a6.228,6.228,0,0,1-2.518.462,3.638,3.638,0,0,1-2.738-1.024,3.792,3.792,0,0,1-1-2.754,4.323,4.323,0,0,1,.926-2.828,3.207,3.207,0,0,1,2.626-1.2,2.789,2.789,0,0,1,2.455,1.2,4.068,4.068,0,0,1,.664,2.365,4.181,4.181,0,0,1-.061.758ZM90.827,48.26a.907.907,0,0,0-.865.714,1.126,1.126,0,0,0-.033.254v.627a1.076,1.076,0,0,0,.024.231.892.892,0,0,0,.865.682c.611,0,.984-.484.984-1.269,0-.683-.325-1.238-.976-1.238Zm7.026-.095a.955.955,0,0,0-.9.944h1.7a.831.831,0,0,0-.8-.944Zm6.558.039c-.691,0-.968.674-.968,1.317,0,.746.373,1.31.961,1.31.555,0,.944-.54.944-1.325,0-.6-.27-1.3-.937-1.3ZM85.628,50.284a.513.513,0,0,0,.555.556.8.8,0,0,0,.77-.532.664.664,0,0,0,.024-.215v-.531c-.69-.008-1.349.135-1.349.722Zm37.962-2.119a.955.955,0,0,0-.9.944h1.7a.831.831,0,0,0-.8-.944Z" transform="translate(-42.343 -39.529)" fill="#575756"/>
      <path id="Path_47" data-name="Path 47" d="M122.777,66.986H40.62a4.359,4.359,0,0,1-4.356-4.351V39.025a4.361,4.361,0,0,1,4.356-4.356h82.158a4.361,4.361,0,0,1,4.357,4.356v23.61A4.359,4.359,0,0,1,122.777,66.986ZM40.62,35.8a3.232,3.232,0,0,0-3.228,3.228v23.61a3.229,3.229,0,0,0,3.228,3.223h82.158a3.23,3.23,0,0,0,3.229-3.223V39.025a3.232,3.232,0,0,0-3.229-3.228Z" transform="translate(-36.264 -34.669)" fill="#575756"/>
    </g>
  </g>
</svg>
