<svg xmlns="http://www.w3.org/2000/svg" width="71.296" height="71.296" viewBox="0 0 71.296 71.296">
  <g id="_004-award" data-name="004-award" transform="translate(0)">
    <path id="Path_165" data-name="Path 165" d="M134.864,429.494h-2.089v-6.405A2.089,2.089,0,0,0,130.686,421H97.266a2.089,2.089,0,0,0-2.089,2.089v6.405H93.089a2.089,2.089,0,1,0,0,4.177h41.775a2.089,2.089,0,1,0,0-4.177Zm0,0" transform="translate(-78.328 -362.376)"/>
    <path id="Path_166" data-name="Path 166" d="M65.03,0H6.266A6.273,6.273,0,0,0,0,6.266V9.448a22.782,22.782,0,0,0,15.584,21.62l2.217.74a20.813,20.813,0,0,0,11.441,8.947V44a2.091,2.091,0,0,1-2.089,2.089,6.273,6.273,0,0,0-6.266,6.266v2.089H50.408V52.358a6.273,6.273,0,0,0-6.266-6.266A2.091,2.091,0,0,1,42.053,44V40.755a20.815,20.815,0,0,0,11.441-8.947l2.217-.74A22.782,22.782,0,0,0,71.3,9.448V6.266A6.273,6.273,0,0,0,65.03,0ZM8.257,21.075A18.672,18.672,0,0,1,4.178,9.448V6.266A2.091,2.091,0,0,1,6.266,4.178h6.485l2.127,19.131a20.475,20.475,0,0,0,.637,3.221,18.538,18.538,0,0,1-7.258-5.454Zm37.186-3.19-3.366,3.2.791,4.512a2.088,2.088,0,0,1-3.011,2.219l-4.21-2.162-4.21,2.162A2.088,2.088,0,0,1,28.427,25.6l.791-4.512-3.365-3.2A2.088,2.088,0,0,1,27,14.3l4.7-.667L33.784,9.5a2.174,2.174,0,0,1,3.729,0L39.6,13.636l4.7.667a2.088,2.088,0,0,1,1.147,3.582ZM67.118,9.448A18.454,18.454,0,0,1,55.78,26.529a20.475,20.475,0,0,0,.637-3.221L58.545,4.177H65.03a2.091,2.091,0,0,1,2.089,2.089Zm0,0" transform="translate(0 0)"/>
    <path id="Path_167" data-name="Path 167" d="M233.293,109.673l-.718-1.419-.718,1.419a2.087,2.087,0,0,1-1.57,1.126l-1.5.212,1.053,1a2.089,2.089,0,0,1,.616,1.875l-.257,1.475,1.424-.732a2.1,2.1,0,0,1,1.909,0l1.424.732-.257-1.475a2.09,2.09,0,0,1,.616-1.875l1.053-1-1.5-.212a2.088,2.088,0,0,1-1.571-1.126Zm0,0" transform="translate(-196.927 -93.179)"/>
  </g>
</svg>
