<svg xmlns="http://www.w3.org/2000/svg" width="57.007" height="73.192" viewBox="0 0 57.007 73.192">
  <path id="_005-bag" data-name="005-bag" d="M56.987,66.353,53.128,18.13a2.111,2.111,0,0,0-2.1-1.943H43.283V14.778a14.779,14.779,0,0,0-29.558,0v1.408H5.982a2.111,2.111,0,0,0-2.1,1.943L.02,66.353a6.334,6.334,0,0,0,6.314,6.839H50.672a6.335,6.335,0,0,0,6.314-6.839ZM17.947,14.779a10.556,10.556,0,0,1,21.113,0v1.408H17.947ZM45.394,61.228H11.613a2.111,2.111,0,1,1,0-4.223H45.394a2.111,2.111,0,1,1,0,4.223Zm0,0" transform="translate(0 0)"/>
</svg>
