<svg xmlns="http://www.w3.org/2000/svg" width="20.139" height="25.174" viewBox="0 0 20.139 25.174">
  <g id="download_1_" data-name="download (1)" transform="translate(-48 0)">
    <g id="Group_282" data-name="Group 282" transform="translate(50.595)">
      <g id="Group_281" data-name="Group 281" transform="translate(0)">
        <path id="Path_205" data-name="Path 205" d="M112.221,11.259,111.115,10a.84.84,0,0,0-1.183-.077l-3.3,2.89V.839A.839.839,0,0,0,105.8,0h-1.678a.839.839,0,0,0-.839.839V12.813l-3.3-2.89A.841.841,0,0,0,98.8,10l-1.106,1.257a.84.84,0,0,0,.077,1.187l6.636,5.808a.84.84,0,0,0,1.106,0l6.634-5.808A.838.838,0,0,0,112.221,11.259Z" transform="translate(-97.482)" fill="#fff"/>
      </g>
    </g>
    <g id="Group_284" data-name="Group 284" transform="translate(48 21.817)">
      <g id="Group_283" data-name="Group 283">
        <path id="Path_206" data-name="Path 206" d="M67.3,416H48.839a.839.839,0,0,0-.839.839v1.678a.839.839,0,0,0,.839.839H67.3a.839.839,0,0,0,.839-.839v-1.678A.839.839,0,0,0,67.3,416Z" transform="translate(-48 -416)" fill="#fff"/>
      </g>
    </g>
  </g>
</svg>
