<svg xmlns="http://www.w3.org/2000/svg" width="11.912" height="22.031" viewBox="0 0 11.912 22.031">
  <g id="facebook-logo_1_" data-name="facebook-logo (1)" transform="translate(0)">
    <path id="Path_4" data-name="Path 4" d="M18.583,0,15.726,0c-3.21,0-5.284,2.128-5.284,5.422v2.5H7.569a.449.449,0,0,0-.449.449v3.622a.449.449,0,0,0,.449.449h2.873v9.14a.449.449,0,0,0,.449.449h3.748a.449.449,0,0,0,.449-.449v-9.14h3.359a.449.449,0,0,0,.449-.449V8.371a.45.45,0,0,0-.449-.449h-3.36V5.8c0-1.019.243-1.536,1.57-1.536h1.925a.449.449,0,0,0,.449-.449V.454A.449.449,0,0,0,18.583,0Z" transform="translate(-7.12)" fill="#fff"/>
  </g>
</svg>
