<svg xmlns="http://www.w3.org/2000/svg" width="96.391" height="32.29" viewBox="0 0 96.391 32.29">
  <g id="Group_138" data-name="Group 138" transform="translate(-0.001 0)">
    <path id="Path_64" data-name="Path 64" d="M299.444,65.959H212.6a4.781,4.781,0,0,1-4.775-4.776V38.444a4.781,4.781,0,0,1,4.775-4.775h86.842a4.78,4.78,0,0,1,4.775,4.775V61.183A4.781,4.781,0,0,1,299.444,65.959ZM212.6,34.8a3.651,3.651,0,0,0-3.647,3.647V61.183a3.652,3.652,0,0,0,3.647,3.648h86.842a3.651,3.651,0,0,0,3.647-3.648V38.444a3.651,3.651,0,0,0-3.647-3.647Z" transform="translate(-207.827 -33.668)" fill="#575756"/>
    <g id="Group_137" data-name="Group 137" transform="translate(7.145 6.76)">
      <g id="Group_134" data-name="Group 134" transform="translate(22.35)">
        <path id="Path_65" data-name="Path 65" d="M262.661,48.366h-.64a4.239,4.239,0,0,0-.182-.748h-.924a3.871,3.871,0,0,0-.188.748h-.6q0-.078.467-1.28a10.047,10.047,0,0,0,.467-1.324h.756a11.029,11.029,0,0,0,.423,1.305A11.443,11.443,0,0,1,262.661,48.366Zm-.924-1.13a11.28,11.28,0,0,1-.342-1.116h-.032q0,.078-.354,1.116Z" transform="translate(-260.124 -45.7)" fill="#5e5a5c"/>
        <path id="Path_66" data-name="Path 66" d="M267.536,48.366h-.494a4.888,4.888,0,0,0-.55-.866,4.769,4.769,0,0,1-.656-1.13H265.8a7.059,7.059,0,0,1,.05.792q0,.494.028,1.2h-.492q.03-.62.03-1.363t-.03-1.242h.594a3.763,3.763,0,0,0,.494.846,4.987,4.987,0,0,1,.6,1.066h.03a7.565,7.565,0,0,1-.048-.8q0-.542-.028-1.112h.5q-.028.5-.028,1.242T267.536,48.366Z" transform="translate(-262.42 -45.7)" fill="#5e5a5c"/>
        <path id="Path_67" data-name="Path 67" d="M272.636,46.96a1.476,1.476,0,0,1-.364.992,1.272,1.272,0,0,1-1.02.424q-.3,0-.816-.024.026-.6.026-1.363,0-.728-.026-1.242h.35q.086,0,.256-.006l.222-.006a1.348,1.348,0,0,1,1.047.36,1.245,1.245,0,0,1,.325.864Zm-.546.086a.965.965,0,0,0-.224-.647.85.85,0,0,0-.684-.263,2.1,2.1,0,0,0-.236.018q.02.4.02.836,0,.478.02.948a1.32,1.32,0,0,0,.26.026.756.756,0,0,0,.637-.267,1.032,1.032,0,0,0,.207-.651Z" transform="translate(-264.62 -45.687)" fill="#5e5a5c"/>
        <path id="Path_68" data-name="Path 68" d="M277.449,48.356h-.592a3.93,3.93,0,0,0-.356-.874.467.467,0,0,0-.4-.166l-.222,0q0,.514.018,1.038h-.556q.026-.6.026-1.363,0-.728-.026-1.242h.346l.251-.006q.191-.006.353-.006.918,0,.918.628a.7.7,0,0,1-.524.694v.03a.625.625,0,0,1,.354.315,6.959,6.959,0,0,1,.41.949Zm-.75-1.841q0-.4-.512-.4a1.76,1.76,0,0,0-.332.028q.022.31.022.808.11,0,.186,0,.636,0,.636-.442Z" transform="translate(-266.758 -45.691)" fill="#5e5a5c"/>
        <path id="Path_69" data-name="Path 69" d="M282.194,46.969a1.437,1.437,0,0,1-.376,1.018,1.22,1.22,0,0,1-.93.4A1.176,1.176,0,0,1,280,48.02a1.307,1.307,0,0,1-.356-.943,1.436,1.436,0,0,1,.376-1.018,1.22,1.22,0,0,1,.93-.4,1.178,1.178,0,0,1,.884.37A1.307,1.307,0,0,1,282.194,46.969Zm-.552.058a1.033,1.033,0,0,0-.214-.678.66.66,0,0,0-.528-.26.61.61,0,0,0-.5.262,1.046,1.046,0,0,0-.2.662,1.03,1.03,0,0,0,.215.677.659.659,0,0,0,.527.261.61.61,0,0,0,.5-.263,1.047,1.047,0,0,0,.2-.661Z" transform="translate(-268.636 -45.654)" fill="#5e5a5c"/>
        <path id="Path_70" data-name="Path 70" d="M285.731,48.366h-.566q.026-.62.026-1.363t-.026-1.242h.566q-.026.5-.026,1.242Q285.705,47.758,285.731,48.366Z" transform="translate(-271.042 -45.7)" fill="#5e5a5c"/>
        <path id="Path_71" data-name="Path 71" d="M289.61,46.96a1.476,1.476,0,0,1-.364.992,1.272,1.272,0,0,1-1.02.424q-.3,0-.816-.024.026-.6.026-1.363,0-.728-.026-1.242h.35q.086,0,.256-.006l.222-.006a1.348,1.348,0,0,1,1.047.36,1.245,1.245,0,0,1,.325.864Zm-.546.086a.964.964,0,0,0-.224-.647.85.85,0,0,0-.684-.263,2.1,2.1,0,0,0-.236.018q.02.4.02.836,0,.478.02.948a1.319,1.319,0,0,0,.26.026.756.756,0,0,0,.637-.267,1.032,1.032,0,0,0,.207-.651Z" transform="translate(-272.02 -45.687)" fill="#5e5a5c"/>
        <path id="Path_72" data-name="Path 72" d="M296.172,48.366h-.64a4.233,4.233,0,0,0-.182-.748h-.924a3.866,3.866,0,0,0-.188.748h-.6q0-.078.467-1.28a10.035,10.035,0,0,0,.467-1.324h.756a11.041,11.041,0,0,0,.423,1.305A11.469,11.469,0,0,1,296.172,48.366Zm-.924-1.13a11.325,11.325,0,0,1-.342-1.116h-.032q0,.078-.354,1.116Z" transform="translate(-274.735 -45.7)" fill="#5e5a5c"/>
        <path id="Path_73" data-name="Path 73" d="M300.8,46.433a.78.78,0,0,1-.355.706,1.579,1.579,0,0,1-.871.228c-.063,0-.107,0-.134,0q0,.376.022.992H298.9q.026-.578.026-1.363,0-.72-.026-1.242h.348q.074,0,.284-.006t.364-.006a1.146,1.146,0,0,1,.642.172A.582.582,0,0,1,300.8,46.433Zm-.516.11q0-.428-.568-.428a1.609,1.609,0,0,0-.3.03q.022.378.022.856c.033,0,.072,0,.116,0q.73,0,.73-.462Z" transform="translate(-277.031 -45.691)" fill="#5e5a5c"/>
        <path id="Path_74" data-name="Path 74" d="M305.056,46.433a.78.78,0,0,1-.355.706,1.58,1.58,0,0,1-.871.228c-.063,0-.107,0-.134,0q0,.376.022.992h-.562q.026-.578.026-1.363,0-.72-.026-1.242h.348q.074,0,.284-.006t.364-.006a1.146,1.146,0,0,1,.642.172A.582.582,0,0,1,305.056,46.433Zm-.516.11q0-.428-.568-.428a1.608,1.608,0,0,0-.3.03q.022.378.022.856c.033,0,.072,0,.116,0q.73,0,.73-.462Z" transform="translate(-278.886 -45.691)" fill="#5e5a5c"/>
        <path id="Path_75" data-name="Path 75" d="M311.511,46.969a1.436,1.436,0,0,1-.376,1.018,1.22,1.22,0,0,1-.93.4,1.176,1.176,0,0,1-.884-.371,1.307,1.307,0,0,1-.356-.943,1.437,1.437,0,0,1,.376-1.018,1.221,1.221,0,0,1,.93-.4,1.178,1.178,0,0,1,.884.37,1.307,1.307,0,0,1,.356.944Zm-.552.058a1.033,1.033,0,0,0-.214-.678.659.659,0,0,0-.528-.26.61.61,0,0,0-.5.262,1.046,1.046,0,0,0-.2.662,1.03,1.03,0,0,0,.215.677.659.659,0,0,0,.527.261.609.609,0,0,0,.5-.263,1.046,1.046,0,0,0,.2-.661Z" transform="translate(-281.418 -45.654)" fill="#5e5a5c"/>
        <path id="Path_76" data-name="Path 76" d="M316.63,48.366h-.494a4.881,4.881,0,0,0-.55-.866,4.77,4.77,0,0,1-.656-1.13H314.9a7.059,7.059,0,0,1,.05.792q0,.494.028,1.2h-.492q.03-.62.03-1.363t-.03-1.242h.594a3.765,3.765,0,0,0,.494.846,4.977,4.977,0,0,1,.6,1.066h.03a7.574,7.574,0,0,1-.048-.8q0-.542-.028-1.112h.5q-.028.5-.028,1.242T316.63,48.366Z" transform="translate(-283.825 -45.7)" fill="#5e5a5c"/>
      </g>
      <g id="Group_135" data-name="Group 135" transform="translate(22.166 5.801)">
        <path id="Path_77" data-name="Path 77" d="M269.184,61.15a4.175,4.175,0,0,1-1.151,3.09,4.485,4.485,0,0,1-3.4,1.371,4.836,4.836,0,1,1,0-9.671,4.771,4.771,0,0,1,1.9.388,3.809,3.809,0,0,1,1.448,1.034l-.815.815a3.124,3.124,0,0,0-2.534-1.1,3.7,3.7,0,1,0,0,7.4,3.509,3.509,0,0,0,2.586-1.034,2.905,2.905,0,0,0,.775-1.875h-3.361V60.451h4.487A4,4,0,0,1,269.184,61.15Z" transform="translate(-259.797 -55.939)" fill="#5e5a5c"/>
        <path id="Path_78" data-name="Path 78" d="M278.229,62.083a3.324,3.324,0,0,1,4.68,0,3.627,3.627,0,0,1,0,4.823,3.324,3.324,0,0,1-4.681,0A3.625,3.625,0,0,1,278.229,62.083Zm.886,4.072a2,2,0,0,0,2.909,0,2.555,2.555,0,0,0,0-3.323,2,2,0,0,0-2.909,0A2.554,2.554,0,0,0,279.115,66.156Z" transform="translate(-267.433 -58.198)" fill="#5e5a5c"/>
        <path id="Path_79" data-name="Path 79" d="M290.494,62.083a3.324,3.324,0,0,1,4.68,0,3.627,3.627,0,0,1,0,4.823,3.324,3.324,0,0,1-4.68,0A3.625,3.625,0,0,1,290.494,62.083Zm.886,4.072a2,2,0,0,0,2.909,0,2.554,2.554,0,0,0,0-3.323,2,2,0,0,0-2.909,0A2.554,2.554,0,0,0,291.38,66.156Z" transform="translate(-272.781 -58.198)" fill="#5e5a5c"/>
        <path id="Path_80" data-name="Path 80" d="M304.957,70.662a2.87,2.87,0,0,1-1.836-.562,3.3,3.3,0,0,1-1.021-1.287l1.086-.452a1.78,1.78,0,0,0,.666.866,1.84,1.84,0,0,0,1.105.349,2.037,2.037,0,0,0,1.545-.588,2.213,2.213,0,0,0,.562-1.6v-.608h-.052a2.426,2.426,0,0,1-.879.775,2.629,2.629,0,0,1-1.28.311,2.787,2.787,0,0,1-2.12-.97,3.687,3.687,0,0,1,0-4.81,2.788,2.788,0,0,1,2.12-.969,2.634,2.634,0,0,1,1.28.31,2.428,2.428,0,0,1,.879.776h.052v-.88H308.2v6.012a3.157,3.157,0,0,1-.944,2.476A3.324,3.324,0,0,1,304.957,70.662Zm.09-3.879a1.9,1.9,0,0,0,1.429-.621,2.658,2.658,0,0,0,0-3.335,1.941,1.941,0,0,0-2.851.006,2.618,2.618,0,0,0,0,3.323,1.891,1.891,0,0,0,1.422.627Z" transform="translate(-278.128 -58.198)" fill="#5e5a5c"/>
        <path id="Path_81" data-name="Path 81" d="M316.3,65.563h-1.189V56.306H316.3Z" transform="translate(-283.916 -56.099)" fill="#5e5a5c"/>
        <path id="Path_82" data-name="Path 82" d="M321.691,67.867a3.054,3.054,0,0,1-2.334-.957,3.39,3.39,0,0,1-.9-2.417,3.488,3.488,0,0,1,.873-2.379,2.834,2.834,0,0,1,2.23-1,2.922,2.922,0,0,1,2.256.918,3.481,3.481,0,0,1,.847,2.456l-.013.22h-5a2.148,2.148,0,0,0,.64,1.512,1.94,1.94,0,0,0,1.377.556,1.707,1.707,0,0,0,1.733-1.086l1.06.439a2.839,2.839,0,0,1-1.021,1.235A2.97,2.97,0,0,1,321.691,67.867ZM323.4,63.73a1.689,1.689,0,0,0-.5-1.034,1.779,1.779,0,0,0-1.364-.491,1.705,1.705,0,0,0-1.144.414,2.113,2.113,0,0,0-.666,1.112Z" transform="translate(-285.373 -58.196)" fill="#5e5a5c"/>
        <path id="Path_83" data-name="Path 83" d="M336.843,65.563h-1.19V56.305h3.155a2.927,2.927,0,0,1,2.036.782,2.691,2.691,0,0,1,0,3.944,2.925,2.925,0,0,1-2.036.782h-1.965Zm0-4.887h1.991a1.538,1.538,0,0,0,1.2-.5,1.591,1.591,0,0,0,0-2.223,1.536,1.536,0,0,0-1.2-.5h-1.991Z" transform="translate(-292.871 -56.099)" fill="#5e5a5c"/>
        <path id="Path_84" data-name="Path 84" d="M348.947,65.563h-1.189V56.306h1.189Z" transform="translate(-298.148 -56.099)" fill="#5e5a5c"/>
        <path id="Path_85" data-name="Path 85" d="M353.469,67.867a2.5,2.5,0,0,1-1.687-.582,1.926,1.926,0,0,1-.679-1.538,1.9,1.9,0,0,1,.8-1.623,3.251,3.251,0,0,1,1.978-.588,3.4,3.4,0,0,1,1.72.388v-.181a1.413,1.413,0,0,0-.478-1.118,1.718,1.718,0,0,0-1.176-.42,1.824,1.824,0,0,0-.937.246,1.266,1.266,0,0,0-.576.672l-1.086-.465a2.464,2.464,0,0,1,.866-1.054,2.773,2.773,0,0,1,1.707-.485,2.93,2.93,0,0,1,2.017.711,2.54,2.54,0,0,1,.8,2V67.66H355.6v-.879h-.051A2.333,2.333,0,0,1,353.469,67.867Zm.194-1.086a1.939,1.939,0,0,0,1.338-.55,1.7,1.7,0,0,0,.6-1.3,2.344,2.344,0,0,0-1.512-.414,1.969,1.969,0,0,0-1.306.375,1.127,1.127,0,0,0-.44.88.846.846,0,0,0,.4.737,1.6,1.6,0,0,0,.918.272Z" transform="translate(-299.606 -58.196)" fill="#5e5a5c"/>
        <path id="Path_86" data-name="Path 86" d="M363.856,70.614h-1.228l1.474-3.193-2.612-5.935h1.293l1.888,4.552h.026l1.836-4.552h1.293Z" transform="translate(-304.136 -58.358)" fill="#5e5a5c"/>
      </g>
      <g id="Group_136" data-name="Group 136" transform="translate(0 0.303)">
        <path id="Path_87" data-name="Path 87" d="M220.5,56.557q0-4.435,0-8.871a1.331,1.331,0,0,1,.327-.968c.1-.106.172-.135.294-.01q2.984,3.045,5.978,6.081,1.937,1.968,3.878,3.931c.126.127.137.193,0,.326q-4.757,4.73-9.5,9.473a.326.326,0,0,1-.514.03,1.206,1.206,0,0,1-.468-1.025q0-2.627,0-5.254,0-1.857,0-3.714Z" transform="translate(-220.495 -46.38)" fill="#575756"/>
        <path id="Path_88" data-name="Path 88" d="M222.521,46.191a1.088,1.088,0,0,1,.577.16q6.074,3.4,12.151,6.8c.186.1.182.162.039.3q-1.359,1.337-2.7,2.688c-.1.1-.156.153-.286.021q-4.833-4.929-9.674-9.849C222.6,46.291,222.576,46.259,222.521,46.191Z" transform="translate(-221.379 -46.191)" fill="#575756"/>
        <path id="Path_89" data-name="Path 89" d="M224.128,74.772q4.409-4.457,8.813-8.918c.182-.185.267-.16.43.01q1.117,1.164,2.26,2.3c.134.134.145.189-.037.288q-5.66,3.1-11.315,6.207A1.716,1.716,0,0,0,224.128,74.772Z" transform="translate(-222.079 -54.708)" fill="#575756"/>
        <path id="Path_90" data-name="Path 90" d="M248.253,62.2a.926.926,0,0,1-.408.743,5.081,5.081,0,0,1-.562.343c-1.141.631-2.285,1.256-3.423,1.891a.256.256,0,0,1-.372-.05q-1.216-1.256-2.45-2.493c-.12-.12-.123-.186,0-.307q1.437-1.415,2.859-2.845a.229.229,0,0,1,.331-.046c1.127.639,2.259,1.268,3.389,1.9A1.036,1.036,0,0,1,248.253,62.2Z" transform="translate(-229.412 -51.944)" fill="#575756"/>
      </g>
    </g>
  </g>
</svg>
