<svg xmlns="http://www.w3.org/2000/svg" width="9.381" height="20.716" viewBox="0 0 9.381 20.716">
  <g id="Без_названия" data-name="Без названия" transform="translate(-32.784 -9.519)">
    <path id="Path_41" data-name="Path 41" d="M32.783,29.479h9.381V8.763H32.783Zm1.662-1.624V22.293a.064.064,0,0,1,.066-.062h1.517l.006,0a.066.066,0,0,1,.022.009.061.061,0,0,1,.021.012l0,0,.109.141.212.2.246.158.273.118.287.072.3.023.3-.026.285-.071.272-.12.245-.16.212-.2.1-.134.005,0a.061.061,0,0,1,.02-.012.055.055,0,0,1,.023-.009l0,0h1.463a.064.064,0,0,1,.066.062v5.563a.064.064,0,0,1-.066.062H34.511A.064.064,0,0,1,34.445,27.856ZM34.237,10.19a.064.064,0,0,1,.066-.062h6.341a.064.064,0,0,1,.066.062V20.61a.064.064,0,0,1-.066.062H38.881a.066.066,0,0,1-.041-.016.058.058,0,0,1-.009-.009l0,0,0,0,0,0h0l-.152-.207-.188-.178-.22-.144L38.018,20l-.257-.064-.267-.021-.267.023-.257.068-.242.109-.218.145-.186.18-.147.2s0,0-.006.005l-.007.005a.066.066,0,0,1-.041.016H34.3a.064.064,0,0,1-.066-.062ZM32.987,20.663l.007-.11,0,0s0,0,0,0l.017-.107s0,0,0,0,0,0,0,0l.032-.106,0,0s0,0,0,0l.043-.1,0,0s0,0,0,0l.055-.095,0,0s0,0,0,0l.067-.091,0,0s0,0,0,0l.035-.037.006,0s0,0,0-.005l.042-.03h0s0,0,0,0l.045-.026h.006l0,0,.049-.018h.006l0,0,.052-.01h.005l0,0,.053,0h.014l.048,0,0,0h0l.052.01,0,0h.006l.049.018,0,0h.006l.045.026s0,0,0,0h0l.041.03s0,0,0,0l.006,0,.035.037s0,0,0,0l0,0,.067.091s0,0,0,0l0,0,.055.095s0,0,0,0l0,0,.045.1s0,0,0,0l0,0,.031.106s0,0,0,0l0,0,.018.107s0,0,0,0,0,0,0,0l0,.11s0,0,0,0,0,0,0,0l-.006.109s0,0,0,0,0,0,0,0l-.021.108,0,0s0,0,0,0l-.033.105s0,0,0,0,0,0,0,0l-.046.1,0,0s0,0,0,0l-.055.1,0,0s0,0,0,0l-.085.127,0,0h0l-.01.013-.006,0s0,.005,0,.007l-.014.012h0l-.013.01s-.008,0-.011,0,0,0-.007.006l-.016.006h-.006l-.017,0h0l-.019,0h-.062v.689s.008,0,.013,0,.012,0,.018,0l.154.085s.006.008.01.012.01,0,.013.009l.095.143s0,.01,0,.015.006.007.007.012l.016.169c0,.005,0,.009,0,.014s0,.01,0,.015l-.069.157a.061.061,0,0,1-.014.016s0,.005,0,.008l-.136.11s-.011,0-.016.006-.006.006-.011.007l-.175.04-.016,0-.016,0-.176-.04s-.007-.005-.011-.007-.012,0-.016-.006l-.136-.11s0-.005,0-.008-.011-.009-.013-.015l-.069-.157c0-.005,0-.01,0-.015s-.005-.009,0-.014l.016-.169c0-.005.006-.008.007-.013s0-.01,0-.014l.095-.143s.009-.005.013-.009,0-.009.01-.012l.154-.085c.006,0,.012,0,.017,0s.008,0,.013,0v-.689h-.062l-.017,0h0l-.017,0h-.006L33.3,21.4s0,0-.007-.006-.008,0-.011,0l-.014-.01v0h0l-.013-.012s0,0,0-.006,0,0-.005,0l-.01-.013s0,0,0,0,0,0,0-.005l-.007-.014-.068-.109h0l-.057-.1s0,0,0,0l0,0-.046-.1s0,0,0,0l0,0-.032-.105s0,0,0,0l0,0-.021-.108s0,0,0,0,0,0,0,0l-.007-.109s0,0,0,0S32.986,20.664,32.987,20.663Z" transform="translate(0 0.756)" fill="#000"/>
    <rect id="Rectangle_13" data-name="Rectangle 13" width="0.001" height="0.001" transform="translate(33.593 22.708)" fill="#000"/>
    <path id="Path_42" data-name="Path 42" d="M34.48,55.559l.029.1.037.088s0-.006.005-.009,0-.011,0-.015l.042-.068s.008-.005.011-.008,0-.009.008-.012l.065-.046s.009,0,.013,0,.006-.006.011-.008l.079-.018c.006,0,.01,0,.016,0s.01,0,.016,0l.077.018s.006.006.011.008.009,0,.013,0l.065.046s0,.009.008.013.009,0,.011.008l.042.068s0,.01,0,.015.006.007.007.013v.007l0,0,.041-.1.029-.1.018-.1.006-.1,0-.1-.017-.1-.028-.1-.038-.094-.051-.094-.056-.083-.02-.022-.025-.019-.022-.015-.026-.009-.03-.007-.027,0-.028,0-.03.007-.026.009-.025.015-.023.017-.021.022-.057.083-.049.093-.041.095-.026.1-.016.1-.006.1.006.1Z" transform="translate(-1.206 -33.104)" fill="#000"/>
  </g>
</svg>
