<svg id="instagram_2_" data-name="instagram (2)" xmlns="http://www.w3.org/2000/svg" width="22.418" height="22.417" viewBox="0 0 22.418 22.417">
  <g id="Group_36" data-name="Group 36">
    <g id="Group_35" data-name="Group 35">
      <path id="Path_5" data-name="Path 5" d="M15.905,0H6.512A6.519,6.519,0,0,0,0,6.512v9.394a6.519,6.519,0,0,0,6.512,6.512h9.394a6.519,6.519,0,0,0,6.512-6.512V6.512A6.519,6.519,0,0,0,15.905,0Zm4.76,15.905a4.766,4.766,0,0,1-4.76,4.761H6.512a4.766,4.766,0,0,1-4.761-4.76V6.512A4.766,4.766,0,0,1,6.512,1.751h9.394a4.766,4.766,0,0,1,4.761,4.761Z" fill="#00"/>
    </g>
  </g>
  <g id="Group_38" data-name="Group 38" transform="translate(5.166 5.166)">
    <g id="Group_37" data-name="Group 37">
      <path id="Path_6" data-name="Path 6" d="M13.187,7.145a6.042,6.042,0,1,0,6.042,6.042A6.049,6.049,0,0,0,13.187,7.145Zm0,10.333a4.291,4.291,0,1,1,4.291-4.291A4.3,4.3,0,0,1,13.187,17.477Z" transform="translate(-7.145 -7.145)" fill="#000"/>
    </g>
  </g>
  <g id="Group_40" data-name="Group 40" transform="translate(16.463 4.203)">
    <g id="Group_39" data-name="Group 39">
      <ellipse id="Ellipse_8" data-name="Ellipse 8" cx="0.876" cy="0.876" rx="0.876" ry="0.876" fill="#000"/>
    </g>
  </g>
</svg>
