<svg xmlns="http://www.w3.org/2000/svg" width="18.592" height="12.434" viewBox="0 0 18.592 12.434">
  <path id="Path_91" data-name="Path 91" d="M9.319,108.819h0a.715.715,0,0,0,.391-.115l.03-.02.021-.013.354-.293,8.453-6.976a.1.1,0,0,0-.079-.041H.1a.1.1,0,0,0-.061.022l8.844,7.29A.693.693,0,0,0,9.319,108.819ZM0,102.35v10.34l6.336-5.118Zm12.263,5.257,6.329,5.086V102.385Zm-2.012,1.66a1.508,1.508,0,0,1-1.858,0l-1.451-1.2L0,113.679v.018a.1.1,0,0,0,.1.1H18.494a.1.1,0,0,0,.1-.1v-.017l-6.936-5.573Z" transform="translate(0 -101.362)"/>
</svg>
