<svg xmlns="http://www.w3.org/2000/svg" width="57.924" height="76.044" viewBox="0 0 57.924 76.044">
  <g id="_003-location-pin" data-name="003-location-pin" transform="translate(0 0)">
    <path id="Path_155" data-name="Path 155" d="M109.047,256a15.6,15.6,0,0,0,1.74,2.117,14.7,14.7,0,0,0,4.511,3.009A28.4,28.4,0,0,1,113.8,256Zm0,0" transform="translate(-92.851 -217.978)"/>
    <path id="Path_156" data-name="Path 156" d="M109.047,105.942H113.8a28.094,28.094,0,0,1,1.555-5.243,14.7,14.7,0,0,0-6.308,5.243Zm0,0" transform="translate(-92.851 -85.743)"/>
    <path id="Path_157" data-name="Path 157" d="M174.6,262.494c.281.007.557.008.838,0,.885-.559,2.177-2.76,3.067-6.494h-6.97c.889,3.733,2.181,5.933,3.066,6.494Zm0,0" transform="translate(-146.058 -217.978)"/>
    <path id="Path_158" data-name="Path 158" d="M96.733,170.456c0-1.5.092-2.987.229-4.456H90.776a14.19,14.19,0,0,0,0,8.911h6.186C96.825,173.442,96.733,171.954,96.733,170.456Zm0,0" transform="translate(-76.683 -141.345)"/>
    <path id="Path_159" data-name="Path 159" d="M175.02,91c-.836,0-2.446,2.322-3.485,6.684h6.97C177.466,93.322,175.856,91,175.02,91Zm0,0" transform="translate(-146.058 -77.484)"/>
    <path id="Path_160" data-name="Path 160" d="M238.855,261.129a14.681,14.681,0,0,0,4.517-3.012A15.51,15.51,0,0,0,245.1,256h-4.745A28.4,28.4,0,0,1,238.855,261.129Zm0,0" transform="translate(-203.379 -217.978)"/>
    <path id="Path_161" data-name="Path 161" d="M253.686,170.456c0,1.5-.092,2.987-.229,4.456h6.186a15.6,15.6,0,0,0,0-8.911h-6.186C253.595,167.469,253.686,168.958,253.686,170.456Zm0,0" transform="translate(-215.813 -141.345)"/>
    <path id="Path_162" data-name="Path 162" d="M165.244,166a40.858,40.858,0,0,0,0,8.911h8.424a40.858,40.858,0,0,0,0-8.911Zm0,0" transform="translate(-140.494 -141.345)"/>
    <path id="Path_163" data-name="Path 163" d="M57.924,29.111A29.123,29.123,0,0,0,28.962,0,29.123,29.123,0,0,0,0,29.111,28.684,28.684,0,0,0,5.979,46.738l18.527,24.85H11.139a2.228,2.228,0,0,0,0,4.456H46.785a2.228,2.228,0,0,0,0-4.456H33.418L52.359,46.181a28.733,28.733,0,0,0,5.565-17.07ZM43.143,43.289a20.055,20.055,0,0,1-32.751-6.621l-.006-.013a20.052,20.052,0,1,1,32.757,6.634Zm0,0"/>
    <path id="Path_164" data-name="Path 164" d="M244.777,105.932a14.508,14.508,0,0,0-6.3-5.245,28.069,28.069,0,0,1,1.556,5.245Zm0,0" transform="translate(-203.057 -85.733)"/>
  </g>
</svg>
