<svg xmlns="http://www.w3.org/2000/svg" width="18.197" height="18.186" viewBox="0 0 18.197 18.186">
  <path id="Path_93" data-name="Path 93" d="M18.189,14.54a.88.88,0,0,1-.27.771l-2.562,2.543a1.442,1.442,0,0,1-.453.327,1.871,1.871,0,0,1-.549.173q-.019,0-.116.01t-.25.01a8.881,8.881,0,0,1-1.185-.125,9,9,0,0,1-2-.616,16.817,16.817,0,0,1-2.687-1.474,20.037,20.037,0,0,1-3.2-2.7,21.11,21.11,0,0,1-2.235-2.543A18.118,18.118,0,0,1,1.255,8.674,12.088,12.088,0,0,1,.446,6.805,9.914,9.914,0,0,1,.08,5.361,4.772,4.772,0,0,1,0,4.407q.019-.347.019-.385A1.873,1.873,0,0,1,.2,3.473,1.444,1.444,0,0,1,.523,3.02L3.086.458A.849.849,0,0,1,3.7.188a.719.719,0,0,1,.443.144,1.339,1.339,0,0,1,.327.356L6.534,4.6a.938.938,0,0,1,.1.674A1.2,1.2,0,0,1,6.3,5.89l-.944.944a.321.321,0,0,0-.067.125.475.475,0,0,0-.029.144,3.478,3.478,0,0,0,.347.925,8.488,8.488,0,0,0,.713,1.127A12.513,12.513,0,0,0,7.69,10.687a12.76,12.76,0,0,0,1.541,1.377,8.9,8.9,0,0,0,1.127.722,3,3,0,0,0,.693.279l.241.048a.459.459,0,0,0,.125-.029.322.322,0,0,0,.125-.067l1.1-1.117a1.18,1.18,0,0,1,.809-.308,1.007,1.007,0,0,1,.52.116h.019l3.718,2.2A.969.969,0,0,1,18.189,14.54Z" transform="translate(0 -0.188)" fill="#010002"/>
</svg>
