<svg xmlns="http://www.w3.org/2000/svg" width="19.414" height="25.886" viewBox="0 0 19.414 25.886">
  <g id="resume" transform="translate(-37.125)">
    <path id="Path_231" data-name="Path 231" d="M83.48,49.314l.491-.151a.686.686,0,0,1,.846.421l.665,1.826.665-1.826A.687.687,0,0,1,87,49.163l.491.151a2.014,2.014,0,0,1,1.355,1.6V45.5a.5.5,0,0,0-.5-.5H82.627a.5.5,0,0,0-.5.5v5.413A2.015,2.015,0,0,1,83.48,49.314Zm2-3.584a1.618,1.618,0,1,1-1.618,1.618,1.62,1.62,0,0,1,1.618-1.618Z" transform="translate(-41.078 -41.078)" fill="#707070"/>
    <path id="Path_232" data-name="Path 232" d="M132.651,110.3l-.742,2.037h1.029v-1.5A.644.644,0,0,0,132.651,110.3Z" transform="translate(-86.523 -100.684)" fill="#707070"/>
    <path id="Path_233" data-name="Path 233" d="M97.594,110.834v1.5h1.029l-.742-2.037A.644.644,0,0,0,97.594,110.834Z" transform="translate(-55.199 -100.684)" fill="#707070"/>
    <path id="Path_234" data-name="Path 234" d="M55.624,0H38.04a.915.915,0,0,0-.915.915V24.971a.915.915,0,0,0,.915.915H55.624a.915.915,0,0,0,.915-.915V.915A.915.915,0,0,0,55.624,0ZM39.674,3.236a.686.686,0,0,1,.686-.686H48.45a.686.686,0,0,1,.686.686v9.1a.686.686,0,0,1-.686.686H40.361a.686.686,0,0,1-.686-.686ZM53.3,21.719H40.361a.686.686,0,0,1,0-1.373H53.3a.686.686,0,0,1,0,1.373Zm0-4.854H40.361a.686.686,0,0,1,0-1.373H53.3a.686.686,0,0,1,0,1.373Zm0-6.471H51.686a.686.686,0,1,1,0-1.373H53.3a.686.686,0,0,1,0,1.373Zm0-3.236H51.686a.686.686,0,1,1,0-1.373H53.3a.686.686,0,0,1,0,1.373Z" fill="#707070"/>
  </g>
</svg>
