<svg xmlns="http://www.w3.org/2000/svg" width="25.191" height="20.04" viewBox="0 0 25.191 20.04">
  <g id="Group_186" data-name="Group 186" transform="translate(-742.814 -436.373)">
    <g id="_002-list" data-name="002-list" transform="translate(742.814 436.373)">
      <path id="Path_183" data-name="Path 183" d="M0,5.574H5.574V0H0Zm1.476-4.1H4.1V4.1H1.476Zm0,0"/>
      <path id="Path_184" data-name="Path 184" d="M149.3,0V5.574h17.845V0Zm16.369,4.1H150.773V1.476h14.893Zm0,0" transform="translate(-141.951)"/>
      <path id="Path_185" data-name="Path 185" d="M0,152.582H5.574v-5.574H0Zm1.476-4.1H4.1v2.622H1.476Zm0,0" transform="translate(0 -139.775)"/>
      <path id="Path_186" data-name="Path 186" d="M149.3,152.582h17.845v-5.574H149.3Zm1.476-4.1h14.893v2.622H150.773Zm0,0" transform="translate(-141.951 -139.775)"/>
      <path id="Path_187" data-name="Path 187" d="M0,299.586H5.574v-5.574H0Zm1.476-4.1H4.1v2.622H1.476Zm0,0" transform="translate(0 -279.546)"/>
      <path id="Path_188" data-name="Path 188" d="M149.3,299.586h17.845v-5.574H149.3Zm1.476-4.1h14.893v2.622H150.773Zm0,0" transform="translate(-141.951 -279.546)"/>
    </g>
  </g>
</svg>
