<svg xmlns="http://www.w3.org/2000/svg" width="75.255" height="50.652" viewBox="0 0 75.255 50.652">
  <g id="_006-shipping" data-name="006-shipping" transform="translate(0 0)">
    <path id="Path_168" data-name="Path 168" d="M77.014,319.42a7.967,7.967,0,0,0,7.088-4.342H69.926a7.968,7.968,0,0,0,7.088,4.342Zm0,0" transform="translate(-59.648 -268.767)"/>
    <path id="Path_169" data-name="Path 169" d="M333.014,319.42a7.967,7.967,0,0,0,7.088-4.342H325.926A7.968,7.968,0,0,0,333.014,319.42Zm0,0" transform="translate(-278.021 -268.767)"/>
    <path id="Path_170" data-name="Path 170" d="M147.834,13.025a2.169,2.169,0,0,1,1.117.309L152.9,15.7V0h-10.13V15.7l3.948-2.369A2.17,2.17,0,0,1,147.834,13.025Zm0,0" transform="translate(-121.785 0)"/>
    <path id="Path_171" data-name="Path 171" d="M74.7,13.749a6.519,6.519,0,0,1,6.512-6.513h2.171V2.171A2.171,2.171,0,0,0,81.212,0H73.252V19.537A2.171,2.171,0,0,1,69.965,21.4l-6.119-3.671L57.726,21.4a2.171,2.171,0,0,1-3.288-1.862V0H46.479a2.171,2.171,0,0,0-2.171,2.171V24.6H74.7Zm0,0" transform="translate(-37.796 0)"/>
    <path id="Path_172" data-name="Path 172" d="M377.23,79.36a2.168,2.168,0,0,0-1.488-.59H369.23V90.347H388.9Zm0,0" transform="translate(-314.961 -67.192)"/>
    <path id="Path_173" data-name="Path 173" d="M68.019,97.584h7.236V94.689H52.1a2.171,2.171,0,0,1-2.171-2.171V78.77H43.416a2.161,2.161,0,0,0-1.535.636c-.049.049-.1.1-.14.154a2.158,2.158,0,0,0-.5,1.381v15.2H2.171A2.171,2.171,0,0,0,0,98.307v4.342a6.52,6.52,0,0,0,6.513,6.513H73.084a2.171,2.171,0,0,0,2.171-2.171v-5.065H68.019a2.171,2.171,0,0,1,0-4.342Zm0,0" transform="translate(0 -67.192)"/>
  </g>
</svg>
