<svg xmlns="http://www.w3.org/2000/svg" width="70.889" height="70.889" viewBox="0 0 70.889 70.889">
  <g id="_001-support" data-name="001-support" transform="translate(0)">
    <path id="Path_145" data-name="Path 145" d="M87.339,0a27.136,27.136,0,0,0-27.1,27.1V52.124a6.255,6.255,0,1,0,12.51,0V31.274a6.262,6.262,0,0,0-6.255-6.255,6.186,6.186,0,0,0-2,.356,22.911,22.911,0,0,1,45.693-.017,6.142,6.142,0,0,0-2-.34,6.262,6.262,0,0,0-6.255,6.255V52.124a6.262,6.262,0,0,0,6.255,6.255A6.183,6.183,0,0,0,110.273,58v2.469a2.088,2.088,0,0,1-2.085,2.085H93.209a6.255,6.255,0,1,0,0,4.17h14.979a6.262,6.262,0,0,0,6.255-6.255V27.1A27.136,27.136,0,0,0,87.339,0Zm0,0" transform="translate(-51.894)"/>
    <path id="Path_146" data-name="Path 146" d="M481.883,213.6v24.251a6.244,6.244,0,0,0,4.17-5.871v-12.51a6.245,6.245,0,0,0-4.17-5.871Zm0,0" transform="translate(-415.164 -184.024)"/>
    <path id="Path_147" data-name="Path 147" d="M0,219.469v12.51a6.244,6.244,0,0,0,4.17,5.871V213.6A6.246,6.246,0,0,0,0,219.469Zm0,0" transform="translate(0 -184.024)"/>
  </g>
</svg>
