<svg xmlns="http://www.w3.org/2000/svg" width="73.143" height="64.287" viewBox="0 0 73.143 64.287">
  <g id="_002-target" data-name="002-target" transform="translate(0 0)">
    <path id="Path_148" data-name="Path 148" d="M210.992,212.651a2.143,2.143,0,1,0,2.143-2.143A2.146,2.146,0,0,0,210.992,212.651Zm0,0" transform="translate(-180.851 -180.507)"/>
    <path id="Path_149" data-name="Path 149" d="M53.433,46.462l-.9-1.806a23.572,23.572,0,1,1,0-24.02l.9-1.805a2.144,2.144,0,0,1,1.917-1.185h5.284a32.144,32.144,0,1,0,0,30H55.35a2.145,2.145,0,0,1-1.917-1.185Zm0,0" transform="translate(-0.001 -0.502)"/>
    <path id="Path_150" data-name="Path 150" d="M167.737,159.077H172.2a10.754,10.754,0,0,0-13.776-8.083,10.528,10.528,0,0,0-7.025,7.218,10.723,10.723,0,1,0,20.8,5.15h-4.464a6.429,6.429,0,1,1,0-4.286Zm0,0" transform="translate(-129.419 -129.076)"/>
    <path id="Path_151" data-name="Path 151" d="M125.584,107.648l2.542-5.083a19.287,19.287,0,1,0,0,14.451l-2.541-5.083h-.6a15,15,0,1,1,0-4.286h.6Zm0,0" transform="translate(-77.988 -77.647)"/>
    <path id="Path_152" data-name="Path 152" d="M370.387,151.692l-3.691,7.383h13l2.29-4.579a2.759,2.759,0,0,0-2.468-3.993H372.31a2.151,2.151,0,0,0-1.923,1.189Zm0,0" transform="translate(-314.311 -129.075)"/>
    <path id="Path_153" data-name="Path 153" d="M379.7,240.508h-13l3.692,7.383a2.149,2.149,0,0,0,1.922,1.188h8.648a1.871,1.871,0,0,0,1.671-2.7Zm0,0" transform="translate(-314.311 -206.222)"/>
    <path id="Path_154" data-name="Path 154" d="M485.686,210.508h-.814l-1.071,2.143,1.071,2.143h.814a2.143,2.143,0,1,0,0-4.286Zm0,0" transform="translate(-414.687 -180.507)"/>
  </g>
</svg>
