<svg id="youtube-logo" xmlns="http://www.w3.org/2000/svg" width="20.066" height="24.079" viewBox="0 0 20.066 24.079">
  <path id="YouTube" d="M24.473,17.613H23.151l.006-.768a.623.623,0,0,1,.622-.62h.084a.624.624,0,0,1,.624.62Zm-4.957-1.645a.565.565,0,0,0-.609.5V20.2a.622.622,0,0,0,1.221,0V16.469A.565.565,0,0,0,19.516,15.968Zm8.05-2.088v7.1a3.2,3.2,0,0,1-3.283,3.1h-13.5a3.2,3.2,0,0,1-3.283-3.1v-7.1a3.2,3.2,0,0,1,3.283-3.1h13.5A3.2,3.2,0,0,1,27.566,13.88ZM11.684,21.753V14.272h1.674V13.164l-4.461-.007v1.09l1.393,0v7.5ZM16.7,15.386H15.3v3.995a7.08,7.08,0,0,1,0,.969c-.113.31-.623.639-.822.033a7.95,7.95,0,0,1,0-.975l-.006-4.022H13.083l0,3.959c0,.607-.014,1.059,0,1.265.034.363.022.786.359,1.028a1.685,1.685,0,0,0,2.132-.714l0,.825H16.7V15.386Zm4.463,4.575,0-3.325c0-1.267-.949-2.026-2.236-1l.006-2.472-1.394,0L17.53,21.7l1.146-.017.1-.531C20.245,22.493,21.166,21.573,21.164,19.961Zm4.367-.441-1.046.006c0,.041,0,.089,0,.142v.584a.571.571,0,0,1-.572.567h-.2a.571.571,0,0,1-.572-.567V18.716h2.4v-.9a14.226,14.226,0,0,0-.071-1.694c-.171-1.192-1.844-1.381-2.689-.771a1.575,1.575,0,0,0-.585.788A4.436,4.436,0,0,0,22,17.542v1.983C22,22.821,26.008,22.355,25.53,19.52ZM20.164,8.757a.95.95,0,0,0,.336.424.972.972,0,0,0,.571.158.888.888,0,0,0,.535-.166,1.282,1.282,0,0,0,.391-.5l-.026.547h1.555V2.606H22.3V7.753a.51.51,0,0,1-1.02,0V2.606H20V7.067c0,.568.01.947.027,1.139A1.918,1.918,0,0,0,20.164,8.757ZM15.451,5.022a5.5,5.5,0,0,1,.158-1.488A1.592,1.592,0,0,1,17.235,2.35a1.929,1.929,0,0,1,.925.209,1.542,1.542,0,0,1,.6.543,2.141,2.141,0,0,1,.288.689,5.492,5.492,0,0,1,.078,1.083V6.546A9.056,9.056,0,0,1,19.05,7.9a2.142,2.142,0,0,1-.307.8,1.454,1.454,0,0,1-.6.55,1.91,1.91,0,0,1-.844.177,2.344,2.344,0,0,1-.9-.151,1.234,1.234,0,0,1-.574-.459,2.036,2.036,0,0,1-.292-.742,7.147,7.147,0,0,1-.086-1.3V5.022Zm1.218,2.627a.621.621,0,1,0,1.236,0V4.128a.621.621,0,1,0-1.236,0Zm-4.3,1.778h1.467l0-5.073L15.567.009h-1.6l-.922,3.228L12.106,0H10.518l1.844,4.357Z" transform="translate(-7.5)" fill="#000"/>
</svg>
