<svg xmlns="http://www.w3.org/2000/svg" width="43.098" height="43.098" viewBox="0 0 43.098 43.098">
  <g id="Group_124" data-name="Group 124" transform="translate(-251.86 -4592.859)">
    <path id="Без_названия_2_" data-name="Без названия (2)" d="M42.087,0H.511A.492.492,0,0,0,0,.511V42.087a.492.492,0,0,0,.511.511h13.5a.492.492,0,0,0,.511-.511V18.445c0-4.43,3.024-8.051,6.773-8.051s6.773,3.621,6.773,8.051V42.087a.492.492,0,0,0,.511.511h13.5a.492.492,0,0,0,.511-.511V.511A.492.492,0,0,0,42.087,0ZM21.3,9.372c-4.3,0-7.8,4.089-7.8,9.073V41.576H11.416V17.125a9.883,9.883,0,1,1,19.766,0V41.533H29.095V18.445C29.095,13.418,25.6,9.372,21.3,9.372Zm20.277,32.2H32.2V17.125a10.905,10.905,0,0,0-21.81,0V41.533H1.022V1.022H41.533V41.576Z" transform="translate(252.109 4593.109)" stroke="#000" stroke-width="0.5"/>
  </g>
</svg>
