<svg xmlns="http://www.w3.org/2000/svg" width="51.301" height="51.31" viewBox="0 0 51.301 51.31">
  <g id="Group_125" data-name="Group 125" transform="translate(-269.394 -4581.269)">
    <g id="Без_названия_3_" data-name="Без названия (3)" transform="translate(269.544 4581.429)">
      <path id="Path_43" data-name="Path 43" d="M38.814,21.5V15.234a.552.552,0,0,0-.406-.56L30.036,6.216V.611a.6.6,0,0,0-.406-.56.536.536,0,0,0-.66.153L.2,28.99a.5.5,0,0,0-.2.459v6.267a.561.561,0,0,0,.3.509l8.473,8.559v5.553a.6.6,0,0,0,.406.56.456.456,0,0,0,.254.051.619.619,0,0,0,.457-.2L38.712,21.959A3.259,3.259,0,0,0,38.814,21.5Zm-10-19.361V6.267L1.218,34.136V29.7Zm.609,5.248,7.864,8L9.386,43.612,1.471,35.664ZM10,48.809V44.733l27.55-27.869v4.382Z" transform="translate(0 0)" fill="#fff" stroke="#fff" stroke-width="0.3"/>
      <path id="Path_44" data-name="Path 44" d="M70.449,46.138,64.665,40.3a.643.643,0,0,0-.457-.2.62.62,0,0,0-.457.2L40.615,63.642a.584.584,0,0,0,0,.863L46.4,70.339a.643.643,0,0,0,.457.2.551.551,0,0,0,.457-.2L70.449,47A.583.583,0,0,0,70.449,46.138ZM42.087,64.149a2.792,2.792,0,0,1,1.776-.609h0A3.633,3.633,0,0,1,46.4,64.657a3.313,3.313,0,0,1,.507,4.313Zm6.6,3.044a4.765,4.765,0,0,0-1.421-3.4,4.947,4.947,0,0,0-3.4-1.471H43.71l20.549-20.7,4.922,4.972Z" transform="translate(-19.639 -19.542)" fill="#fff" stroke="#fff" stroke-width="0.3"/>
    </g>
  </g>
</svg>
