<svg xmlns="http://www.w3.org/2000/svg" width="43.5" height="43.5" viewBox="0 0 43.5 43.5">
  <g id="Group_126" data-name="Group 126" transform="translate(-271.602 -4560.603)">
    <path id="Без_названия_1_" data-name="Без названия (1)" d="M43,4.673V.459c0-.043,0-.043-.043-.086A.259.259,0,0,0,42.914.2a.042.042,0,0,1-.043-.043c0-.043-.043-.043-.086-.086a.594.594,0,0,0-.172-.129L42.57-.1h-.086c.043.043.043.043,0,.043H14.147a.529.529,0,0,0-.43.215L.086,20.11v.043c0,.043-.043.043-.043.086v4.343a.5.5,0,0,0,.516.516H9.03L.086,37.912v.043c-.043.043-.043.129-.086.172v.043H0v4.214a.5.5,0,0,0,.516.516H16.254a1.863,1.863,0,0,0,.215-.043l.043-.043.129-.129.043-.043,6.493-9.331V38.9a.5.5,0,0,0,.516.516h7.353a1.862,1.862,0,0,0,.215-.043l.043-.043.129-.129.043-.043L42.914,22.733a.622.622,0,0,0,.086-.3V15.251c0-.043,0-.043-.043-.086a.259.259,0,0,0-.043-.172.042.042,0,0,1-.043-.043c0-.043-.043-.043-.086-.086a.594.594,0,0,0-.172-.129l-.043-.043h-.086c-.043,0-.043-.043-.086-.043H36.12l6.794-9.761C42.957,4.888,43,4.759,43,4.673ZM14.448.975H25.757L12.642,19.852H1.5ZM1.032,24.066V20.927H11.868L9.675,24.066Zm12.212-3.225a.383.383,0,0,0,.215-.344L27,.975H41.452L16,37.7H1.548ZM1.032,38.729H15.695v3.139H1.032ZM24.209,32.15H30.53v6.278H24.209Zm7.353,5.16V31.978l.043-.043,10.32-15.007v5.5Zm3.827-21.543h6.063L30.745,31.118h-6.02L34.83,16.584ZM41.968,4.5,34.013,15.939,23.263,31.333v.043a.158.158,0,0,0-.043.129L16.77,40.75V38.385L30.487,18.6,41.968,2.136Z" transform="translate(271.852 4560.953)" stroke="#000" stroke-width="0.5"/>
  </g>
</svg>
