<svg xmlns="http://www.w3.org/2000/svg" width="207.121" height="122.03" viewBox="0 0 207.121 122.03">
  <g id="_2830212144016" transform="translate(0)">
    <path id="Path_112" data-name="Path 112" d="M723.525,334c25.482,0,48.572,6.138,65.3,16.054,16.815,9.986,27.222,23.818,27.222,39.12s-10.407,29.135-27.222,39.12c-16.732,9.916-39.821,16.054-65.3,16.054s-48.572-6.138-65.286-16.054C641.407,418.309,631,404.476,631,389.174s10.407-29.135,27.239-39.12C674.954,340.138,698.043,334,723.525,334Zm64.684,17.173h0c-16.548-9.811-39.4-15.879-64.684-15.879-25.265,0-48.137,6.068-64.684,15.879-16.43,9.758-26.6,23.189-26.6,38,0,14.795,10.173,28.243,26.6,37.984,16.548,9.811,39.42,15.879,64.684,15.879,25.281,0,48.137-6.068,64.684-15.879,16.43-9.741,26.6-23.189,26.6-37.984C814.813,374.362,804.64,360.931,788.209,351.173Z" transform="translate(-619.965 -328.159)" fill="#fff" fill-rule="evenodd"/>
    <path id="Path_113" data-name="Path 113" d="M103.56,0c57.2,0,103.56,27.316,103.56,61.015S160.761,122.03,103.56,122.03,0,94.714,0,61.015,46.359,0,103.56,0Zm0,1.294h0C47.048,1.294,1.244,28.033,1.244,61.015s45.8,59.7,102.316,59.7S205.877,94,205.877,61.015,160.072,1.294,103.56,1.294Z" transform="translate(0)" fill="#fff" fill-rule="evenodd"/>
    <path id="Path_114" data-name="Path 114" d="M1352.112,819c42,.944,75.715,17.838,77.694,38.893h-5.173c-3.41-17.628-34.281-31.548-72.521-32.4V822.9c35.795.769,65.369,12.679,73.253,28.505-7.285-16.491-36.893-29.012-73.253-29.817Zm76.762,47.34h0c-3.46,10.843-15.4,20.268-32.318,26.494V888.9c14.587-5.526,24.75-13.483,27.595-22.559ZM1300.25,892.834h0c-16.916-6.226-28.859-15.652-32.3-26.494h4.707c2.844,9.076,13.007,17.033,27.594,22.559ZM1267,857.893h0c1.979-21.055,35.695-37.949,77.694-38.893v2.588c-36.344.8-65.951,13.326-73.236,29.817,7.884-15.826,37.458-27.736,73.236-28.505v2.588c-38.223.857-69.111,14.777-72.521,32.4Z" transform="translate(-1244.843 -804.677)" fill="#fff" fill-rule="evenodd"/>
    <path id="Path_115" data-name="Path 115" d="M7727.3,3881h15.844v31.671h-.262l-13.221-.158V3885.04H7727l.053-3.777V3881Zm15.319.524H7727.56v3.253l2.413-.052v27.456l12.644-.018Z" transform="translate(-7597.542 -3813.13)" fill="#fff" fill-rule="evenodd"/>
    <line id="Line_21" data-name="Line 21" transform="translate(143.028 72.872)" fill="none" stroke="#b3b3b3" stroke-width="7.903"/>
    <path id="Path_116" data-name="Path 116" d="M7873.368,4957h11.279v10.913H7873v-.262l.1-10.388V4957Zm10.755.525h-10.51l-.087,9.863h10.6Z" transform="translate(-7740.968 -4870.313)" fill="#fff" fill-rule="evenodd"/>
    <path id="Path_117" data-name="Path 117" d="M7882.181,3993.382a7.42,7.42,0,0,0-3.637-.857,4.515,4.515,0,0,0-3.323,1.259c-.595.472-.63.787-1.661,1.084l-.035,12.067h10.6v-12.416a2.143,2.143,0,0,0,.314.087l.21.053v12.8H7873v-.262l.035-12.521v-.21l.192-.053c1.067-.262,1.067-.559,1.661-1.031a5.5,5.5,0,0,1,7.292,0Z" transform="translate(-7740.968 -3922.188)" fill="#fff" fill-rule="evenodd"/>
    <path id="Path_118" data-name="Path 118" d="M6988.157,4094H7003.9v31.478H6992.7v-27.246h-4.634l-.07-4.074V4094Zm15.425.315h-15.25v3.567l4.7.018v27.246h10.545Z" transform="translate(-6870.917 -4022.405)" fill="#fff" fill-rule="evenodd"/>
    <path id="Path_119" data-name="Path 119" d="M7246.262,5165h9.286v10.9H7246.1v-.262l-.1-10.388V5165Zm8.762.508h-8.5l.087,9.863h8.412Z" transform="translate(-7124.43 -5074.675)" fill="#fff" fill-rule="evenodd"/>
    <line id="Line_22" data-name="Line 22" x1="0.017" transform="translate(130.454 76.492)" fill="none" stroke="#b3b3b3" stroke-width="7.903"/>
    <path id="Path_120" data-name="Path 120" d="M7151.884,4201.364a7.478,7.478,0,0,0-3.638-.857,4.479,4.479,0,0,0-3.322,1.259c-.612.489.139.489.489,1.014v11.874l8.411.262V4202.5l.315.1.209.035v12.8h-.262l-8.918-.262h-.263v-12.8l-1.906-.192a2.739,2.739,0,0,0,1.591-.822,5.555,5.555,0,0,1,7.292,0Z" transform="translate(-7023.203 -4126.551)" fill="#fff" fill-rule="evenodd"/>
    <g id="Group_154" data-name="Group 154" transform="translate(106.644 75.495)">
      <path id="Path_121" data-name="Path 121" d="M6365.192,4317h15.739v31.479h-11.716v-.158l-.157-28.12H6365l.035-3.043V4317Zm4.354,31.2h0l11.052-.035v-30.831l-15.232.035.018,2.4,4.04.018Z" transform="translate(-6365 -4317)" fill="#fff" fill-rule="evenodd"/>
    </g>
    <line id="Line_23" data-name="Line 23" y1="0.017" transform="translate(120.016 80.392)" fill="none" stroke="#b3b3b3" stroke-width="7.903"/>
    <path id="Path_122" data-name="Path 122" d="M6601.263,5388h9.688v10.9H6601V5388Zm9.164.525h-8.9v9.863h8.9Z" transform="translate(-6490.261 -5293.775)" fill="#fff" fill-rule="evenodd"/>
    <path id="Path_123" data-name="Path 123" d="M6604.056,4424.364a7.771,7.771,0,0,0-3.655-.839,4.613,4.613,0,0,0-3.322,1.241c-.6.49-.21.612-.175,1.277l.1,11.839,8.971.052v-11.874l.018-.56c.1.035.192.071.315.105l.192.052v12.784h-.262l-9.5-.035h-.263v-12.8l.192-.053c0-.787-.507-.7.087-1.189a5.555,5.555,0,0,1,7.292,0Z" transform="translate(-6485.813 -4345.651)" fill="#fff" fill-rule="evenodd"/>
    <path id="Path_124" data-name="Path 124" d="M2965.631,3177.466c2.326.245,3.48,1.294,3.48,3.131,0,1.888-1.154,2.938-3.48,3.148v.787h-2.151v-.8c-2.308-.21-3.48-1.242-3.48-3.13,0-1.836,1.172-2.885,3.48-3.131v-.577h2.151Zm0,4.669h0a1.615,1.615,0,0,0,.875-.577,1.521,1.521,0,0,0,.3-.979,1.614,1.614,0,0,0-.315-1,1.652,1.652,0,0,0-.857-.629Zm-2.151.035h0V3179a1.526,1.526,0,0,0-.839.594,1.67,1.67,0,0,0-.017,1.976A1.856,1.856,0,0,0,2963.48,3182.17Zm11.49,1.1h-2.676l-.385,1.259H2969.5l2.885-7.642h2.588l2.868,7.642h-2.483Zm-.49-1.661h0l-.839-2.746-.839,2.746Zm6.471-1.784h1.259a4.443,4.443,0,0,1,2.588.612,2.235,2.235,0,0,1,.839,1.924,1.875,1.875,0,0,1-.77,1.609,3.692,3.692,0,0,1-2.221.56h-4.057v-7.642h6.453v1.539h-4.092Zm0,3.061h1.207c.752,0,1.119-.262,1.119-.8,0-.472-.367-.7-1.119-.7h-1.207Zm5.928-6h3.935a2.622,2.622,0,0,1,1.923.612,2.293,2.293,0,0,1,.647,1.731,2.425,2.425,0,0,1-.7,1.819,3.026,3.026,0,0,1-2.134.647h-1.294v2.833h-2.378Zm2.378,3.27h.577a1.481,1.481,0,0,0,.962-.245.754.754,0,0,0,.28-.612.829.829,0,0,0-.245-.612,1.262,1.262,0,0,0-.892-.245h-.682Zm12.679-3.27h0v7.642h-2.221v-4.2l-2.851,4.2h-2.238v-7.642h2.221v4.232l2.868-4.232Zm8.534,7.642h-2.658l-.945-1.958a3.533,3.533,0,0,0-.49-.892.772.772,0,0,0-.507-.175v3.025h-2.361v-7.642h2.361v2.938a.616.616,0,0,0,.472-.227,4.635,4.635,0,0,0,.542-1.172,3.5,3.5,0,0,1,.542-1.014,1.651,1.651,0,0,1,.874-.455,10.366,10.366,0,0,1,1.924-.122v1.609h-.122a1.4,1.4,0,0,0-.892.227,1.655,1.655,0,0,0-.49.752,2.83,2.83,0,0,1-.4.77,1.548,1.548,0,0,1-.594.4,1.884,1.884,0,0,1,.892.577,4.9,4.9,0,0,1,.8,1.277Zm5.543-1.259h-2.676l-.385,1.259h-2.414l2.885-7.642h2.588l2.868,7.642H3016.4Zm-.49-1.661h0l-.839-2.746-.839,2.746Zm15.687,4.6H3029.3v-1.679h-4.879v1.679h-1.906v-3.445h.787a11.979,11.979,0,0,0,.664-4.179v-1.7h6.418v5.876h.822Zm-3.183-3.445h0v-4h-1.906v.1a18.207,18.207,0,0,1-.525,3.9Zm4.127-5.876h4.424a2.412,2.412,0,0,1,1.7.542,1.766,1.766,0,0,1,.594,1.364,1.676,1.676,0,0,1-.419,1.154,2.025,2.025,0,0,1-.822.525,2.127,2.127,0,0,1,1.207.665,1.9,1.9,0,0,1,.385,1.224,1.985,1.985,0,0,1-.28,1.067,2.066,2.066,0,0,1-.752.752,2.65,2.65,0,0,1-.892.245,10.547,10.547,0,0,1-1.067.1h-4.074Zm2.378,2.99h1.031a1.218,1.218,0,0,0,.77-.175.739.739,0,0,0,.21-.56.66.66,0,0,0-.21-.525,1.18,1.18,0,0,0-.752-.192h-1.05Zm0,3.008h1.207a1.335,1.335,0,0,0,.857-.21.746.746,0,0,0,.262-.577.689.689,0,0,0-.262-.56,1.473,1.473,0,0,0-.857-.192h-1.207Zm5.911-6h6.331v1.626h-3.952v1.224h3.672v1.557h-3.672v1.5h4.075v1.731h-6.453Zm7.712,0h3.935a2.65,2.65,0,0,1,1.924.612,2.286,2.286,0,0,1,.629,1.731,2.414,2.414,0,0,1-.682,1.819,3.055,3.055,0,0,1-2.133.647h-1.294v2.833h-2.379Zm2.379,3.27h.577a1.48,1.48,0,0,0,.962-.245.754.754,0,0,0,.28-.612.83.83,0,0,0-.245-.612,1.285,1.285,0,0,0-.91-.245h-.664Zm5.351-3.27h6.33v1.626h-3.969v1.224h3.672v1.557h-3.672v1.5h4.074v1.731h-6.435Zm15.04,0h0v7.642H3068.7v-4.2l-2.85,4.2h-2.239v-7.642h2.221v4.232l2.868-4.232Zm-1.731-1.889h0a1.753,1.753,0,0,1-.647,1.067,1.993,1.993,0,0,1-1.242.4,2.029,2.029,0,0,1-1.242-.4,1.653,1.653,0,0,1-.629-1.067h.892a.907.907,0,0,0,.962.647.924.924,0,0,0,1-.647Z" transform="translate(-2912.377 -3119.476)" fill="#fff" fill-rule="evenodd"/>
    <path id="Path_125" data-name="Path 125" d="M9494.679,3374.358a1.679,1.679,0,1,0-1.679-1.679A1.68,1.68,0,0,0,9494.679,3374.358Z" transform="translate(-9333.533 -3312.049)" fill="#fff" fill-rule="evenodd"/>
    <path id="Path_126" data-name="Path 126" d="M4849.218,2897.067c-.035-.35-.053-.84-.071-1.067h-.122a.359.359,0,0,1-.315.14h-2.2a.307.307,0,0,1-.314-.14h-.123c-.018.28-.052.682-.07,1.084h.193a1.318,1.318,0,0,1,.227-.56c.087-.087.192-.14.63-.14h.192v2.588c0,.455-.053.49-.524.524v.192h1.784v-.192c-.472-.035-.524-.07-.524-.524v-2.588h.245c.315,0,.454.017.56.122a1.409,1.409,0,0,1,.245.56Zm2.028-1.014h0a1.831,1.831,0,0,0-1.924,1.871,1.863,1.863,0,1,0,3.725-.052A1.76,1.76,0,0,0,4851.247,2896.052Zm-.1.227h0c.629,0,1.067.664,1.067,1.749,0,1.014-.42,1.521-.945,1.521-.7,0-1.1-.8-1.1-1.731C4850.162,2896.875,4850.583,2896.28,4851.142,2896.28Zm2.063-.14h0v.192c.367.035.42.07.42.542v2.1c0,.455-.053.49-.455.542v.175h1.7v-.175c-.472-.053-.525-.087-.525-.542v-.752l.385.087a1.171,1.171,0,0,0,.228-.017,1.13,1.13,0,0,0,1.119-1.137.933.933,0,0,0-.42-.8,1.577,1.577,0,0,0-.944-.21Zm1.137.437h0a.231.231,0,0,1,.053-.175.441.441,0,0,1,.209-.052c.332,0,.682.21.682.822,0,.734-.437.875-.647.875a.752.752,0,0,1-.3-.053Zm4.407.4h0c-.035-.28-.052-.717-.052-.84h-2.536v.192c.4.035.437.053.437.56v2.046c0,.49-.035.542-.437.577v.175h1.7v-.175c-.49-.035-.507-.087-.507-.577v-2.361c0-.192,0-.192.21-.192h.332c.28,0,.367.035.455.157a1.549,1.549,0,0,1,.192.472Zm1.941-.927h0a1.831,1.831,0,0,0-1.924,1.871,1.863,1.863,0,1,0,3.725-.052A1.76,1.76,0,0,0,4860.69,2896.052Zm-.1.227h0c.63,0,1.066.664,1.066,1.749,0,1.014-.419,1.521-.927,1.521-.7,0-1.119-.8-1.119-1.731C4859.605,2896.875,4860.042,2896.28,4860.585,2896.28Zm4.022,1.487h0c.385-.088.856-.3.856-.822a.69.69,0,0,0-.333-.612,1.536,1.536,0,0,0-.892-.192h-1.609v.192c.385.035.438.07.438.542v2.081c0,.472-.053.507-.472.542v.192h1.4a2.466,2.466,0,0,0,1.154-.227.912.912,0,0,0,.507-.822c0-.525-.419-.787-1.049-.857Zm-.8-.053h0v-1.049c0-.1,0-.192.035-.227a.408.408,0,0,1,.245-.07.6.6,0,0,1,.594.682c0,.455-.228.665-.751.665Zm0,.21h.1c.613,0,.945.262.945.769a.684.684,0,0,1-.664.77c-.281,0-.385-.1-.385-.507Zm5.369,1.766h-1.557v-.192c.315-.052.35-.1.263-.35-.053-.175-.14-.4-.228-.612H4866.6c-.053.157-.123.35-.193.577-.07.262-.07.332.333.385v.192h-1.225v-.192c.367-.035.437-.1.612-.559l1.12-2.816.279-.07c.35.962.7,1.906,1.049,2.85.193.49.262.56.595.594Zm-1.626-1.451h0l-.4-1.189h-.017c-.14.4-.28.8-.42,1.189Zm4.914-2.1h-1.591c-.84,0-1.329.315-1.329.962,0,.472.332.822.944.892h0c-.263.07-.437.245-.682.665a4.937,4.937,0,0,1-.385.7.548.548,0,0,1-.368.157v.175h.472c.472,0,.665-.122.822-.454.157-.28.279-.612.419-.857a.479.479,0,0,1,.4-.3h.122v.8c0,.525-.052.577-.437.612v.192h1.626v-.192c-.42-.035-.472-.087-.472-.612v-1.941c0-.525.035-.577.455-.612Zm-1.172,1.731h-.14c-.56,0-.857-.262-.857-.752a.682.682,0,0,1,.7-.751c.228,0,.3.035.3.245Zm6.978,1.819h0v-.192c-.437-.035-.455-.07-.472-.577l-.052-2.046c0-.455.017-.507.454-.542v-.192h-1.1l-1.067,2.4-1.066-2.4h-1.12v.192c.455.035.507.123.455.735l-.087,1.084c-.035.577-.087.857-.1,1.031-.035.192-.14.3-.455.315v.192h1.312v-.192c-.35-.035-.472-.07-.49-.332a6.981,6.981,0,0,1,0-.875l.07-1.434h.018l1.119,2.8h.158l1.207-2.85h.035v2.116c0,.507-.017.542-.437.577v.192Zm3.6,0h-1.557v-.192c.315-.052.35-.1.262-.35-.052-.175-.139-.4-.227-.612H4879.3c-.052.157-.123.35-.192.577-.087.262-.07.332.332.385v.192h-1.224v-.192c.367-.035.437-.1.612-.559l1.119-2.816.28-.07c.349.962.682,1.906,1.049,2.85.175.49.245.56.595.594Zm-1.626-1.451h0l-.4-1.189h-.018c-.157.4-.279.8-.437,1.189Zm1.784-2.1h0v.192c.367.035.419.07.419.542v2.1c0,.455-.052.49-.455.542v.175h1.7v-.175c-.472-.053-.524-.087-.524-.542v-.752l.385.087a1.176,1.176,0,0,0,.228-.017,1.13,1.13,0,0,0,1.119-1.137.961.961,0,0,0-.4-.8,1.674,1.674,0,0,0-.961-.21Zm1.137.437h0a.234.234,0,0,1,.052-.175.449.449,0,0,1,.21-.052c.333,0,.682.21.682.822,0,.734-.437.875-.647.875a.752.752,0,0,1-.3-.053Zm5.3,3.113h0v-.192a.558.558,0,0,1-.56-.385c-.157-.332-.3-.647-.385-.8a1.028,1.028,0,0,0-.7-.577h0a1.435,1.435,0,0,0,.542-.63c.227-.472.35-.577.56-.577h.1a.214.214,0,0,0,.228-.192c0-.157-.123-.28-.332-.28-.263,0-.455.175-.647.577a2.241,2.241,0,0,1-.455.8.87.87,0,0,1-.665.245v-.77c0-.524.035-.542.455-.577v-.192h-1.644v.192c.419.035.455.053.455.577v2.011c0,.524-.035.542-.455.577v.192h1.644v-.192c-.42-.035-.455-.052-.455-.577v-1.032c.28,0,.507.1.665.542.1.315.228.595.3.752a.7.7,0,0,0,.717.507Zm3.533,0h-1.557v-.192c.315-.052.35-.1.262-.35-.052-.175-.14-.4-.227-.612h-1.05c-.052.157-.122.35-.192.577-.07.262-.07.332.333.385v.192h-1.224v-.192c.367-.035.437-.1.611-.559l1.12-2.816.279-.07c.35.962.7,1.906,1.05,2.85.192.49.262.56.595.594Zm-1.609-1.451h0l-.42-1.189h-.017c-.141.4-.28.8-.42,1.189Z" transform="translate(-4765.436 -2845.355)" fill="#fff" fill-rule="evenodd"/>
    <path id="Path_127" data-name="Path 127" d="M3516.868,1400.155v3.987a7.241,7.241,0,0,0,.07,1.224.813.813,0,0,0,.227.437.719.719,0,0,0,.507.175h.245v.332l-3.917.052v-.3h.228a.788.788,0,0,0,.542-.192,1.018,1.018,0,0,0,.227-.437,5.845,5.845,0,0,0,.07-1.119V1396.5a5.465,5.465,0,0,0-.07-1.1.372.372,0,0,0-.245-.262.6.6,0,0,0-.507.1c-.087.052-.175.088-.227.122v-.28c1.294-.734,2.606-1.469,3.935-2.134v.332a1.789,1.789,0,0,1-.262.122,1.508,1.508,0,0,0-.525.472,1.859,1.859,0,0,0-.227.56,8.6,8.6,0,0,0-.052,1.242c0,1.207,0,2.413-.018,3.637.909-.245,1.784-.507,2.693-.734v-4a9.343,9.343,0,0,0-.052-1.329.628.628,0,0,0-.262-.367.451.451,0,0,0-.49.017c-.087.035-.175.088-.245.123v-.35q1.967-.918,3.935-1.731v.4a2.09,2.09,0,0,1-.245.088,1.079,1.079,0,0,0-.525.437,1.967,1.967,0,0,0-.245.63,11.008,11.008,0,0,0-.052,1.417c0,1.644-.017,3.27-.017,4.914v4.914a11.11,11.11,0,0,0,.052,1.434,1,1,0,0,0,.245.49.551.551,0,0,0,.507.21h.245v.4c-1.312,0-2.623.018-3.935.035v-.35a1.149,1.149,0,0,0,.245-.018.619.619,0,0,0,.524-.227,1.138,1.138,0,0,0,.245-.507,9.254,9.254,0,0,0,.052-1.312c0-1.469.018-2.938.018-4.39C3518.652,1399.7,3517.777,1399.927,3516.868,1400.155Zm10.878-11.262h0c1.224-.4,2.169.035,2.9,1.609a10.2,10.2,0,0,1,.84,2.833,23.093,23.093,0,0,1,.28,3.673,24.2,24.2,0,0,1-.21,3.27,15.822,15.822,0,0,1-.647,2.886c-.734,2.308-1.784,3.445-3.148,3.445-1.347,0-2.4-1-3.13-2.92a11.565,11.565,0,0,1-.665-2.466,18.255,18.255,0,0,1-.21-2.868,19.344,19.344,0,0,1,.28-3.288,14.154,14.154,0,0,1,.875-2.92C3525.682,1390.274,3526.644,1389.26,3527.746,1388.892Zm.052.787h0c-.682.21-1.207,1.172-1.574,2.833a25.729,25.729,0,0,0-.472,5.561,35.64,35.64,0,0,0,.175,3.638,11.719,11.719,0,0,0,.507,2.553c.315.927.752,1.4,1.312,1.4a1.147,1.147,0,0,0,.962-.665,7.58,7.58,0,0,0,.769-2.676,34.966,34.966,0,0,0,.3-4.809,37.076,37.076,0,0,0-.262-5.194,5.6,5.6,0,0,0-.717-2.238A.88.88,0,0,0,3527.8,1389.679Zm9.916,6.016h0a3.365,3.365,0,0,1,1.5,1.452,7.728,7.728,0,0,1,.612,3.463,8.819,8.819,0,0,1-.682,3.76,2.647,2.647,0,0,1-2.448,1.8c-1.277.017-2.553.017-3.83.017v-.472a.794.794,0,0,0,.7-.262,1.5,1.5,0,0,0,.28-.63,14.382,14.382,0,0,0,.07-1.941c.018-2.046.018-4.075.018-6.121v-6.138a15.319,15.319,0,0,0-.052-1.924,1.12,1.12,0,0,0-.28-.577c-.122-.122-.35-.157-.7-.07v-.472c1.207-.3,2.413-.594,3.62-.874a2.034,2.034,0,0,1,1.819.21,3.433,3.433,0,0,1,.857,1.661,9.689,9.689,0,0,1,.314,2.536,8.285,8.285,0,0,1-.4,2.641A4.1,4.1,0,0,1,3537.714,1395.695Zm-2.029-.14h0a1.69,1.69,0,0,0,1.172-.595,3.464,3.464,0,0,0,.577-1.381,11.519,11.519,0,0,0,.017-4.285,2.538,2.538,0,0,0-.559-1.154,1.274,1.274,0,0,0-1.207-.175v7.59Zm-.017,1.119h0v6.89a3.088,3.088,0,0,0,.157,1.137c.087.262.227.385.437.385a1,1,0,0,0,.8-.525,3.807,3.807,0,0,0,.56-1.5,11.729,11.729,0,0,0,.21-2.186,12.911,12.911,0,0,0-.21-2.448,2.611,2.611,0,0,0-.665-1.469A1.5,1.5,0,0,0,3535.667,1396.674Zm8.954-1.889h0c.332-.035.647-.07.979-.088a2.2,2.2,0,0,1,2.344,1.417,10.081,10.081,0,0,1,.734,4.249,12.107,12.107,0,0,1-.367,3.165,4.864,4.864,0,0,1-.944,1.959,2,2,0,0,1-1.626.647c-1.346,0-2.693.017-4.04.017v-.525a.9.9,0,0,0,.892-.525,6.633,6.633,0,0,0,.21-2.116v-6.8c.017-2.273.017-4.547.017-6.82a10.95,10.95,0,0,0-.175-2.676c-.1-.3-.385-.42-.857-.35v-.525c1.276-.245,2.571-.437,3.865-.647v.542a.945.945,0,0,0-.7.385,1.976,1.976,0,0,0-.262.682,14.453,14.453,0,0,0-.07,1.941Zm0,1.346h0v6.278a9.716,9.716,0,0,0,.14,2.081c.105.4.28.612.542.612.437,0,.77-.42,1-1.242a11.812,11.812,0,0,0,.332-3.078,12.623,12.623,0,0,0-.3-2.955,2.978,2.978,0,0,0-.682-1.469A1.427,1.427,0,0,0,3544.621,1396.132Zm7.835,9.426h-.228a.537.537,0,0,1-.542-.35,1.789,1.789,0,0,1-.228-.8c-.035-.3-.052-.944-.052-1.976v-14.27q0-1.5.052-1.994a2.682,2.682,0,0,1,.228-.822.622.622,0,0,1,.542-.385c.07-.017.157-.017.245-.035v-.56c-1.312.14-2.623.262-3.935.42v.542a1.028,1.028,0,0,0,.245-.035.53.53,0,0,1,.542.3,1.878,1.878,0,0,1,.227.769c.035.3.053.944.053,1.958v14.148c0,1-.035,1.661-.053,1.976a2.172,2.172,0,0,1-.245.8.564.564,0,0,1-.525.332,1.314,1.314,0,0,1-.262,0v.56c1.312,0,2.623-.017,3.935-.017Zm6.978-17.925h0a13.805,13.805,0,0,0-.14-2.413c-.1-.42-.332-.629-.717-.612h-.245v-.56c1.329-.035,2.676-.052,4.022-.07v.577h-.262c-.35-.017-.577.192-.682.595a11.31,11.31,0,0,0-.175,2.606c0,2.431.017,4.862.017,7.292v7.292a11.4,11.4,0,0,0,.175,2.623.672.672,0,0,0,.682.577h.262v.577h-4.04v-.56h.245a.706.706,0,0,0,.7-.612,12.839,12.839,0,0,0,.175-2.606c0-1.993-.018-4-.018-6.016v-6.016c-.437,2.046-.874,4.092-1.329,6.138-.437,2.064-.875,4.11-1.329,6.138a13.623,13.623,0,0,0,.14,2.273c.087.455.315.7.717.7h.262v.56h-4.04v-.56h.245a.688.688,0,0,0,.682-.595,11.126,11.126,0,0,0,.192-2.571v-14.427a14.611,14.611,0,0,0-.14-2.571.636.636,0,0,0-.735-.542c-.07,0-.157.017-.245.017v-.56c1.329-.1,2.676-.175,4.022-.245v.559a1.309,1.309,0,0,1-.262.018q-.5.026-.682.682a13.174,13.174,0,0,0-.157,2.553v12.067c.455-2.046.892-4.092,1.329-6.138C3558.542,1391.743,3558.979,1389.7,3559.434,1387.633Zm12.784-3.585h0v3.76c.018,1.242,0,2.483.018,3.725h-.228a15.513,15.513,0,0,0-.927-4.6c-.437-1.084-.927-1.661-1.5-1.7-.472-.035-.892.332-1.277,1.084a9.42,9.42,0,0,0-.857,3.06,39.212,39.212,0,0,0-.333,5.421,50.579,50.579,0,0,0,.262,5.386,13.835,13.835,0,0,0,.8,3.672c.367.822.839,1.242,1.417,1.242a1.607,1.607,0,0,0,1.294-.892,12.192,12.192,0,0,0,1.241-3.06v1.854a8.717,8.717,0,0,1-1.312,2.746,1.973,1.973,0,0,1-1.591.857,2.616,2.616,0,0,1-2.151-1.4,11.505,11.505,0,0,1-1.451-4.075,30.372,30.372,0,0,1-.507-5.631,30.867,30.867,0,0,1,.542-5.963,12.944,12.944,0,0,1,1.5-4.32c.629-1,1.312-1.486,2.029-1.434a2.642,2.642,0,0,1,1.679,1.137c.332.42.56.63.647.63.123.017.228-.1.315-.35a4.936,4.936,0,0,0,.157-1.172C3572.06,1384.031,3572.147,1384.048,3572.217,1384.048Zm7.887,1.679h0c.018,1.836.018,3.69.018,5.526-.053-.018-.123-.018-.192-.035a21.585,21.585,0,0,0-.4-2.8,4.036,4.036,0,0,0-.594-1.434,1.052,1.052,0,0,0-.735-.4c-.192-.035-.385-.07-.577-.088.017,2.676.017,5.369.035,8.045,0,2.676.017,5.369.017,8.044a19.415,19.415,0,0,0,.07,2.011,2.187,2.187,0,0,0,.263.717.56.56,0,0,0,.49.3,1.326,1.326,0,0,1,.262.017v.525c-1.329-.017-2.641-.017-3.935-.017v-.542h.244a.6.6,0,0,0,.525-.332,2.136,2.136,0,0,0,.227-.752c.035-.245.052-.909.052-1.976,0-2.711-.017-5.421-.035-8.132,0-2.728-.018-5.439-.018-8.15-.192-.035-.367-.052-.542-.087a.987.987,0,0,0-1.1.787,12.225,12.225,0,0,0-.594,3.568,1,1,0,0,0-.227-.017c0-1.924,0-3.865-.017-5.789C3575.593,1384.993,3577.848,1385.342,3580.1,1385.727Zm6.663,4.6h0a12.281,12.281,0,0,0-.157-2.116.916.916,0,0,0-.717-.717,1,1,0,0,1-.245-.07v-.49c1.329.35,2.693.717,4.04,1.1v.472c-.087-.035-.175-.052-.262-.087a.5.5,0,0,0-.682.315,8.542,8.542,0,0,0-.157,2.133c0,2.028,0,4.057.017,6.086,0,2.029.017,4.057.035,6.086a8.2,8.2,0,0,0,.175,2.2.678.678,0,0,0,.682.49h.262v.472c-1.346-.018-2.693-.018-4.04-.018v-.507h.262a.64.64,0,0,0,.682-.507,9.645,9.645,0,0,0,.157-2.221c0-1.714-.018-3.445-.018-5.159,0-1.731-.018-3.445-.035-5.176-.437,1.679-.857,3.375-1.294,5.106q-.682,2.623-1.312,5.3a11.187,11.187,0,0,0,.122,2.029.719.719,0,0,0,.735.63h.262v.49c-1.364,0-2.711,0-4.057-.018v-.507h.262a.69.69,0,0,0,.7-.559,10.571,10.571,0,0,0,.157-2.326c-.018-2.2-.018-4.389-.035-6.593,0-2.186-.017-4.389-.017-6.593a14.111,14.111,0,0,0-.158-2.378.854.854,0,0,0-.734-.7c-.07-.017-.158-.017-.245-.035v-.525q2.02.42,4.04.892v.49l-.262-.052a.533.533,0,0,0-.682.42,9.736,9.736,0,0,0-.157,2.221c.018,1.8.035,3.585.035,5.386,0,1.784,0,3.585.018,5.369.437-1.766.857-3.515,1.312-5.246Q3586.111,1392.818,3586.767,1390.326Zm11.752,1.207h0c-.42-.175-.682-.14-.8.07a3.526,3.526,0,0,0-.157,1.451v5.4c0,1.8.017,3.6.017,5.386a4.384,4.384,0,0,0,.192,1.626c.1.262.385.385.8.4v.4c-1.259-.017-2.536-.017-3.8-.035v-.42a1,1,0,0,0,.647-.157.93.93,0,0,0,.263-.542,6.11,6.11,0,0,0,.07-1.312c0-2.116,0-4.232-.018-6.348,0-2.116-.018-4.232-.018-6.348-.612-.21-1.207-.42-1.8-.612,0,1.679,0,3.34.017,5.019,0,2.1-.017,3.707-.052,4.792a19.689,19.689,0,0,1-.385,3.13,6.188,6.188,0,0,1-.8,2.221,1.363,1.363,0,0,1-1.1.769q-.524,0-.839-.682a4.73,4.73,0,0,1-.315-1.7,4.183,4.183,0,0,1,.192-1.364c.123-.35.3-.507.542-.49.419.035.647.665.7,1.889.017.56.122.84.3.84.228.017.455-.35.717-1.049a10.67,10.67,0,0,0,.525-2.885q.131-1.836.1-5.351c0-1.067,0-2.133-.017-3.2a14.317,14.317,0,0,0-.07-1.854,1.651,1.651,0,0,0-.3-.769,1.669,1.669,0,0,0-.77-.49v-.455c2.046.7,4.092,1.469,6.156,2.273Zm3.917,7.415h0c.333.07.665.157,1,.245a3.978,3.978,0,0,1,2.343,1.539,4.224,4.224,0,0,1,.735,2.5,3.6,3.6,0,0,1-.367,1.679,2.8,2.8,0,0,1-.927,1.067,3.237,3.237,0,0,1-1.644.35l-4.04-.052v-.367c.472-.018.769-.122.909-.35a3.652,3.652,0,0,0,.192-1.469c-.017-1.574-.017-3.165-.017-4.739-.017-1.574-.017-3.165-.017-4.739a6.712,6.712,0,0,0-.175-1.941,1.445,1.445,0,0,0-.875-.717v-.385c1.294.542,2.606,1.137,3.917,1.731v.332c-.367-.157-.594-.21-.717-.14a.421.421,0,0,0-.245.315,4.872,4.872,0,0,0-.088,1.207C3602.418,1396.325,3602.418,1397.636,3602.436,1398.948Zm0,.874h0v4.057a4.092,4.092,0,0,0,.157,1.364.6.6,0,0,0,.56.42,1.031,1.031,0,0,0,.979-.717,4.414,4.414,0,0,0,.333-1.8,4.928,4.928,0,0,0-.315-1.836,2.379,2.379,0,0,0-.665-1.067A2.969,2.969,0,0,0,3602.436,1399.822Z" transform="translate(-3456.728 -1359.583)" fill="#fff" fill-rule="evenodd"/>
    <path id="Path_128" data-name="Path 128" d="M6045.833,905a10.536,10.536,0,0,1-1.049,3.165c-.734,1.277-1.784,1.871-1.784,2.676,0,.787.8.909,1.067.909.245,0,.979.07,1.662-1.224S6046.166,906.137,6045.833,905Z" transform="translate(-5941.484 -889.174)" fill="#fff" fill-rule="evenodd"/>
    <path id="Path_129" data-name="Path 129" d="M3693.582,3887.315h-15.267v30.831h12.749V3890.62l2.518-.07Zm-15.424-.315H3693.9v3.882l-2.518.052v27.543H3678V3887Z" transform="translate(-3616.375 -3819.025)" fill="#fff" fill-rule="evenodd"/>
    <line id="Line_24" data-name="Line 24" x2="0.017" transform="translate(64.092 72.872)" fill="none" stroke="#b3b3b3" stroke-width="7.903"/>
    <path id="Path_130" data-name="Path 130" d="M3795.524,4957H3784v10.913h11.42V4957Zm-11.017.525h10.772v9.863h-10.772Z" transform="translate(-3720.54 -4870.313)" fill="#fff" fill-rule="evenodd"/>
    <path id="Path_131" data-name="Path 131" d="M3786.448,3993.382a7.471,7.471,0,0,1,3.637-.857,4.483,4.483,0,0,1,3.322,1.259c.613.472.752.945,1.8,1.242V4006.9l-10.7.035v-12.416a2.129,2.129,0,0,1-.315.087l-.192.053v12.8h11.524v-12.8l-.192-.053c-1.049-.262-1-.752-1.591-1.224a5.5,5.5,0,0,0-7.292,0Z" transform="translate(-3720.54 -3922.188)" fill="#fff" fill-rule="evenodd"/>
    <path id="Path_132" data-name="Path 132" d="M4440.582,4094.315h-15.268v30.831h10.546l.087-27.246,4.635-.07Zm-15.425-.315H4440.9v4.179l-4.7.053v27.246H4425V4094Z" transform="translate(-4350.86 -4022.405)" fill="#fff" fill-rule="evenodd"/>
    <line id="Line_25" data-name="Line 25" x2="0.017" transform="translate(76.649 76.492)" fill="none" stroke="#b3b3b3" stroke-width="7.903"/>
    <path id="Path_133" data-name="Path 133" d="M4540.251,5165H4531v10.9h9.374V5165Zm-8.745.508h8.482v9.88l-8.482-.018Z" transform="translate(-4454.978 -5074.675)" fill="#fff" fill-rule="evenodd"/>
    <path id="Path_134" data-name="Path 134" d="M4533.448,4201.364a7.5,7.5,0,0,1,3.655-.857,4.542,4.542,0,0,1,3.323,1.259c.595.489-1.381.979-.349,1.276v11.874h-8.57V4202.5c-.1.035-.192.07-.314.1l-.192.035v12.8h9.6v-12.591l-.087-.595,1.294-.209c-1.049-.263-.472-.21-1.067-.682a5.555,5.555,0,0,0-7.292,0Z" transform="translate(-4455 -4126.551)" fill="#fff" fill-rule="evenodd"/>
    <path id="Path_135" data-name="Path 135" d="M5061.582,4317.332h-15.25v30.831h11.315l-.192-28.382h4.092Zm-15.407-.332h15.739v2.781l-4.2.349.263,28.19v.158H5046V4317Z" transform="translate(-4961.455 -4241.505)" fill="#fff" fill-rule="evenodd"/>
    <line id="Line_26" data-name="Line 26" y1="0.017" transform="translate(87.104 80.392)" fill="none" stroke="#b3b3b3" stroke-width="7.903"/>
    <path id="Path_136" data-name="Path 136" d="M5161.863,5388H5152v10.9h10.125V5388Zm-9.338.525h9.076v9.863h-9.076Z" transform="translate(-5065.573 -5293.775)" fill="#fff" fill-rule="evenodd"/>
    <path id="Path_137" data-name="Path 137" d="M5154.448,4424.364a7.776,7.776,0,0,1,3.655-.839,4.584,4.584,0,0,1,3.323,1.241c.157.14-.088,11.56.175,13.168h-9.076V4425.5c-.105.035-.21.071-.332.105l-.193.052v12.784h10.125v-.263c-.3-1.818.035-13.483-.385-13.815A4.918,4.918,0,0,0,5158.1,4423,5,5,0,0,0,5154.448,4424.364Z" transform="translate(-5065.573 -4345.651)" fill="#fff" fill-rule="evenodd"/>
    <line id="Line_27" data-name="Line 27" transform="translate(108.922 83.277)" fill="none" stroke="#b3b3b3" stroke-width="7.903"/>
    <path id="Path_138" data-name="Path 138" d="M2638.679,3374.358a1.679,1.679,0,1,0-1.679-1.679A1.679,1.679,0,0,0,2638.679,3374.358Z" transform="translate(-2592.703 -3312.049)" fill="#fff" fill-rule="evenodd"/>
    <path id="Path_139" data-name="Path 139" d="M5706.175,4482h15.739v31.478H5706V4482Zm15.407.314h-15.25v30.832h15.25Z" transform="translate(-5610.397 -4403.62)" fill="#fff" fill-rule="evenodd"/>
    <path id="Path_140" data-name="Path 140" d="M5701.263,4476h15.827v31.67H5701V4476Zm15.319.524h-15.057v30.639h15.057Z" transform="translate(-5605.484 -4397.725)" fill="#fff" fill-rule="evenodd"/>
    <path id="Path_141" data-name="Path 141" d="M5812.262,5552h11.944v10.913H5812V5552Zm11.42.525h-11.157v9.863h11.157Z" transform="translate(-5714.542 -5454.908)" fill="#fff" fill-rule="evenodd"/>
    <path id="Path_142" data-name="Path 142" d="M5821.758,4588.382a7.552,7.552,0,0,0-3.655-.857,4.512,4.512,0,0,0-3.322,1.259,6.134,6.134,0,0,1-2.256,1.276v11.875h11.157v-12.417a1.857,1.857,0,0,0,.333.088l.192.052v12.8H5812v-12.8l.193-.052a5.481,5.481,0,0,0,2.273-1.224A4.922,4.922,0,0,1,5818.1,4587,5,5,0,0,1,5821.758,4588.382Z" transform="translate(-5714.542 -4506.783)" fill="#fff" fill-rule="evenodd"/>
  </g>
</svg>
