<svg id="логотип_новый_стиль_3-варианта_2_" data-name="логотип_новый стиль 3-варианта (2)" xmlns="http://www.w3.org/2000/svg" width="93.465" height="55.067" viewBox="0 0 93.465 55.067">
  <g id="_2830212144016" transform="translate(0)">
    <path id="Path_112" data-name="Path 112" d="M672.753,334c11.5,0,21.918,2.77,29.469,7.244,7.588,4.506,12.284,10.748,12.284,17.653s-4.7,13.147-12.284,17.653c-7.55,4.475-17.97,7.244-29.469,7.244s-21.918-2.77-29.461-7.244C635.7,372.045,631,365.8,631,358.9s4.7-13.147,12.292-17.653C650.834,336.77,661.254,334,672.753,334Zm29.189,7.749h0c-7.467-4.427-17.781-7.166-29.189-7.166s-21.722,2.738-29.189,7.166c-7.414,4.4-12,10.464-12,17.148s4.591,12.745,12,17.14c7.467,4.427,17.789,7.166,29.189,7.166s21.722-2.738,29.189-7.166c7.414-4.4,12-10.464,12-17.14S709.356,346.153,701.942,341.749Z" transform="translate(-626.02 -331.364)" fill-rule="evenodd"/>
    <path id="Path_113" data-name="Path 113" d="M46.732,0C72.545,0,93.465,12.327,93.465,27.534S72.545,55.067,46.732,55.067,0,42.741,0,27.534,20.92,0,46.732,0Zm0,.584h0C21.231.584.561,12.65.561,27.534s20.67,26.942,46.171,26.942S92.9,42.417,92.9,27.534,72.234.584,46.732.584Z" transform="translate(0)" fill-rule="evenodd"/>
    <path id="Path_114" data-name="Path 114" d="M1305.408,819c18.952.426,34.167,8.049,35.06,17.551h-2.334c-1.539-7.955-15.47-14.236-32.726-14.623V820.76c16.153.347,29.5,5.721,33.056,12.863-3.288-7.442-16.648-13.092-33.056-13.455Zm34.64,21.362h0c-1.561,4.893-6.95,9.146-14.584,11.956v-1.776c6.583-2.494,11.169-6.084,12.452-10.18ZM1282,852.318h0c-7.634-2.809-13.023-7.063-14.577-11.956h2.124c1.283,4.1,5.87,7.686,12.452,10.18Zm-15-15.767h0c.893-9.5,16.108-17.125,35.06-17.551v1.168c-16.4.363-29.761,6.013-33.048,13.455,3.558-7.142,16.9-12.516,33.048-12.863v1.168c-17.249.387-31.187,6.668-32.726,14.623Z" transform="translate(-1257.001 -812.537)" fill-rule="evenodd"/>
    <path id="Path_115" data-name="Path 115" d="M7727.134,3881h7.15v14.292h-.118l-5.966-.072v-12.4H7727l.024-1.7V3881Zm6.914.236h-6.8v1.468l1.089-.023v12.389l5.707-.008Z" transform="translate(-7668.58 -3850.373)" fill-rule="evenodd"/>
    <line id="Line_21" data-name="Line 21" transform="translate(64.543 32.884)" fill="none" stroke="#b3b3b3" stroke-width="7.903"/>
    <path id="Path_116" data-name="Path 116" d="M7873.165,4957h5.09v4.925H7873v-.119l.047-4.687V4957Zm4.854.237h-4.743l-.04,4.451h4.783Z" transform="translate(-7813.418 -4917.881)" fill-rule="evenodd"/>
    <path id="Path_117" data-name="Path 117" d="M7877.143,3992.623a3.351,3.351,0,0,0-1.642-.387,2.037,2.037,0,0,0-1.5.568c-.267.213-.285.355-.75.489l-.017,5.446h4.783v-5.6a.934.934,0,0,0,.143.039l.094.024v5.777H7873v-.118l.016-5.65v-.095l.087-.024c.481-.118.481-.252.749-.465a2.484,2.484,0,0,1,3.292,0Z" transform="translate(-7813.418 -3960.496)" fill-rule="evenodd"/>
    <path id="Path_118" data-name="Path 118" d="M6988.071,4094h7.1v14.206h-5.05v-12.3h-2.091l-.032-1.838V4094Zm6.961.142h-6.882v1.61l2.124.008v12.3h4.759Z" transform="translate(-6935.165 -4061.691)" fill-rule="evenodd"/>
    <path id="Path_119" data-name="Path 119" d="M7246.118,5165h4.191v4.916h-4.263v-.118l-.047-4.687V5165Zm3.954.229h-3.835l.039,4.45h3.8Z" transform="translate(-7191.14 -5124.24)" fill-rule="evenodd"/>
    <line id="Line_22" data-name="Line 22" x1="0.008" transform="translate(58.869 34.518)" fill="none" stroke="#b3b3b3" stroke-width="7.903"/>
    <path id="Path_120" data-name="Path 120" d="M7147.008,4200.615a3.381,3.381,0,0,0-1.641-.386,2.024,2.024,0,0,0-1.5.568c-.276.221.063.221.221.458v5.357l3.8.119v-5.6l.142.047.095.016v5.776H7148l-4.025-.118h-.119v-5.776l-.859-.088a1.234,1.234,0,0,0,.718-.371,2.509,2.509,0,0,1,3.291,0Z" transform="translate(-7088.941 -4166.855)" fill-rule="evenodd"/>
    <g id="Group_154" data-name="Group 154" transform="translate(48.124 34.068)">
      <path id="Path_121" data-name="Path 121" d="M6365.086,4317h7.1v14.2H6366.9v-.07l-.071-12.689H6365l.016-1.374V4317Zm1.964,14.078h0l4.988-.016v-13.913l-6.875.016.009,1.082,1.823.007Z" transform="translate(-6365 -4317)" fill-rule="evenodd"/>
    </g>
    <line id="Line_23" data-name="Line 23" y1="0.008" transform="translate(54.158 36.277)" fill="none" stroke="#b3b3b3" stroke-width="7.903"/>
    <path id="Path_122" data-name="Path 122" d="M6601.118,5388h4.372v4.917H6601V5388Zm4.135.237h-4.017v4.451h4.017Z" transform="translate(-6551.028 -5345.479)" fill-rule="evenodd"/>
    <path id="Path_123" data-name="Path 123" d="M6599.9,4423.616a3.509,3.509,0,0,0-1.649-.379,2.084,2.084,0,0,0-1.5.561c-.268.221-.094.276-.078.576l.047,5.343,4.048.023v-5.358l.008-.252c.047.016.087.031.143.047l.086.024v5.768h-.118l-4.285-.016h-.119v-5.776l.087-.024c0-.354-.229-.315.04-.536a2.507,2.507,0,0,1,3.291,0Z" transform="translate(-6546.537 -4388.095)" fill-rule="evenodd"/>
    <path id="Path_124" data-name="Path 124" d="M2962.541,3176.112c1.05.111,1.571.584,1.571,1.412,0,.853-.521,1.326-1.571,1.421v.355h-.971v-.363c-1.041-.095-1.57-.561-1.57-1.413,0-.828.529-1.3,1.57-1.412v-.26h.971Zm0,2.107h0a.734.734,0,0,0,.4-.26.69.69,0,0,0,.134-.442.724.724,0,0,0-.142-.45.744.744,0,0,0-.386-.284Zm-.971.015h0v-1.428a.69.69,0,0,0-.379.268.754.754,0,0,0-.008.892A.837.837,0,0,0,2961.57,3178.235Zm5.185.5h-1.207l-.174.568h-1.089l1.3-3.448h1.167l1.294,3.448h-1.121Zm-.221-.75h0l-.379-1.239-.378,1.239Zm2.92-.805h.568a2,2,0,0,1,1.168.277,1.008,1.008,0,0,1,.378.868.846.846,0,0,1-.347.726,1.665,1.665,0,0,1-1,.252h-1.831v-3.448h2.912v.695h-1.846Zm0,1.381H2970c.34,0,.505-.119.505-.363,0-.213-.166-.316-.505-.316h-.544Zm2.675-2.707h1.776a1.182,1.182,0,0,1,.868.276,1.035,1.035,0,0,1,.292.781,1.1,1.1,0,0,1-.316.821,1.366,1.366,0,0,1-.963.292h-.584v1.278h-1.073Zm1.073,1.476h.26a.667.667,0,0,0,.435-.111.34.34,0,0,0,.126-.276.377.377,0,0,0-.11-.276.572.572,0,0,0-.4-.11h-.308Zm5.721-1.476h0v3.448h-1v-1.894l-1.287,1.894h-1.01v-3.448h1v1.91l1.294-1.91Zm3.851,3.448h-1.2l-.426-.883a1.6,1.6,0,0,0-.221-.4.348.348,0,0,0-.229-.079v1.365h-1.065v-3.448h1.065v1.326a.277.277,0,0,0,.213-.1,2.112,2.112,0,0,0,.245-.529,1.575,1.575,0,0,1,.245-.458.746.746,0,0,1,.394-.205,4.671,4.671,0,0,1,.868-.055v.726h-.055a.627.627,0,0,0-.4.1.751.751,0,0,0-.222.339,1.263,1.263,0,0,1-.181.347.689.689,0,0,1-.269.181.857.857,0,0,1,.4.261,2.225,2.225,0,0,1,.363.576Zm2.5-.568h-1.207l-.174.568h-1.089l1.3-3.448h1.168l1.294,3.448h-1.12Zm-.221-.75h0l-.378-1.239-.379,1.239Zm7.079,2.075h-.86v-.758h-2.2v.758h-.86V3178.5h.355a5.41,5.41,0,0,0,.3-1.886v-.766h2.9v2.652h.371Zm-1.436-1.554h0V3176.7h-.861v.047a8.253,8.253,0,0,1-.236,1.76Zm1.862-2.652h2a1.087,1.087,0,0,1,.765.245.8.8,0,0,1,.268.615.757.757,0,0,1-.189.521.916.916,0,0,1-.371.237.954.954,0,0,1,.545.3.856.856,0,0,1,.173.552.9.9,0,0,1-.126.481.938.938,0,0,1-.339.34,1.215,1.215,0,0,1-.4.11,4.772,4.772,0,0,1-.482.047h-1.838Zm1.073,1.35h.466a.549.549,0,0,0,.347-.079.333.333,0,0,0,.095-.253.3.3,0,0,0-.095-.237.529.529,0,0,0-.339-.087h-.474Zm0,1.357h.545a.6.6,0,0,0,.386-.095.336.336,0,0,0,.119-.26.312.312,0,0,0-.119-.253.664.664,0,0,0-.386-.087h-.545Zm2.668-2.707h2.857v.734h-1.784v.552h1.658v.7h-1.658v.679h1.839v.781H2996.3Zm3.48,0h1.776a1.2,1.2,0,0,1,.868.276,1.033,1.033,0,0,1,.284.781,1.09,1.09,0,0,1-.308.821,1.378,1.378,0,0,1-.962.292h-.585v1.278h-1.073Zm1.073,1.476h.261a.666.666,0,0,0,.434-.111.34.34,0,0,0,.126-.276.374.374,0,0,0-.11-.276.58.58,0,0,0-.41-.11h-.3Zm2.415-1.476h2.856v.734h-1.791v.552h1.658v.7h-1.658v.679h1.839v.781h-2.9Zm6.786,0h0v3.448h-1v-1.894l-1.286,1.894h-1.01v-3.448h1v1.91l1.294-1.91Zm-.781-.852h0a.787.787,0,0,1-.292.481.9.9,0,0,1-.56.181.915.915,0,0,1-.561-.181.745.745,0,0,1-.284-.481h.4a.409.409,0,0,0,.434.292.417.417,0,0,0,.449-.292Z" transform="translate(-2938.51 -3149.944)" fill-rule="evenodd"/>
    <path id="Path_125" data-name="Path 125" d="M9493.757,3372.515a.757.757,0,1,0-.757-.757A.757.757,0,0,0,9493.757,3372.515Z" transform="translate(-9421.039 -3344.397)" fill-rule="evenodd"/>
    <path id="Path_126" data-name="Path 126" d="M4847.451,2896.481c-.016-.158-.023-.379-.031-.482h-.055a.163.163,0,0,1-.143.063h-.994a.137.137,0,0,1-.142-.063h-.057c-.007.126-.022.308-.031.49h.088a.6.6,0,0,1,.1-.253c.04-.04.087-.063.285-.063h.087v1.168c0,.205-.024.221-.237.237v.087h.8v-.087c-.213-.016-.236-.031-.236-.237v-1.168h.11c.142,0,.205.008.252.055a.632.632,0,0,1,.111.253Zm.916-.458h0a.827.827,0,0,0-.868.844.84.84,0,1,0,1.681-.024A.793.793,0,0,0,4848.367,2896.024Zm-.047.1h0c.283,0,.481.3.481.789,0,.458-.189.687-.428.687-.314,0-.5-.363-.5-.781S4848.067,2896.126,4848.32,2896.126Zm.931-.063h0v.087c.166.016.189.032.189.245v.947c0,.205-.023.221-.205.245v.079H4850v-.079c-.212-.024-.236-.039-.236-.245V2897l.174.04a.528.528,0,0,0,.1-.008.51.51,0,0,0,.5-.513.419.419,0,0,0-.189-.363.71.71,0,0,0-.426-.095Zm.513.2h0a.1.1,0,0,1,.024-.079.2.2,0,0,1,.094-.024c.15,0,.308.094.308.371,0,.331-.2.394-.291.394a.339.339,0,0,1-.135-.024Zm1.989.182h0c-.016-.126-.023-.324-.023-.379h-1.145v.087c.181.016.2.024.2.253v.923c0,.221-.017.245-.2.26v.079h.766v-.079c-.221-.016-.229-.039-.229-.26v-1.065c0-.087,0-.087.095-.087h.15c.126,0,.165.016.205.071a.721.721,0,0,1,.087.213Zm.876-.418h0a.826.826,0,0,0-.868.844.84.84,0,1,0,1.681-.024A.794.794,0,0,0,4852.629,2896.024Zm-.048.1h0c.284,0,.481.3.481.789,0,.458-.189.687-.418.687-.316,0-.5-.363-.5-.781S4852.337,2896.126,4852.581,2896.126Zm1.815.671h0c.174-.04.387-.134.387-.371a.312.312,0,0,0-.15-.276.694.694,0,0,0-.4-.087h-.727v.087c.175.016.2.032.2.245v.939c0,.214-.023.229-.214.245v.087h.631a1.115,1.115,0,0,0,.521-.1.411.411,0,0,0,.229-.371c0-.237-.189-.355-.474-.387Zm-.363-.024h0v-.474c0-.047,0-.086.017-.1a.181.181,0,0,1,.109-.031.268.268,0,0,1,.269.308c0,.205-.1.3-.339.3Zm0,.095h.047c.277,0,.427.118.427.347a.309.309,0,0,1-.3.347c-.127,0-.174-.047-.174-.229Zm2.423.8h-.7v-.087c.144-.024.158-.048.119-.158-.023-.078-.063-.181-.1-.276h-.474c-.023.071-.055.158-.087.26-.031.118-.031.15.15.174v.087h-.553v-.087c.166-.016.2-.048.276-.252l.5-1.271.126-.031c.158.434.316.86.474,1.286.087.221.118.253.269.269Zm-.734-.655h0l-.182-.537h-.008c-.062.182-.126.363-.189.537Zm2.218-.947h-.718c-.38,0-.6.142-.6.434,0,.213.149.371.426.4h0c-.118.032-.2.11-.308.3a2.334,2.334,0,0,1-.174.315.246.246,0,0,1-.166.071v.079h.213c.214,0,.3-.055.371-.205.071-.126.127-.276.189-.387a.216.216,0,0,1,.183-.134h.054v.363c0,.237-.022.26-.2.276v.087h.733v-.087c-.189-.016-.213-.04-.213-.276v-.876c0-.237.016-.26.205-.276Zm-.529.781h-.062c-.252,0-.387-.118-.387-.34a.307.307,0,0,1,.315-.339c.1,0,.134.016.134.11Zm3.149.821h0v-.087c-.2-.016-.205-.031-.213-.26l-.023-.924c0-.205.007-.229.2-.245v-.087h-.5l-.482,1.081-.481-1.081h-.5v.087c.206.016.229.055.206.332l-.04.489c-.016.26-.039.386-.047.465s-.063.134-.206.142v.087h.592v-.087c-.158-.016-.213-.031-.221-.15a3.108,3.108,0,0,1,0-.395l.031-.647h.009l.5,1.263h.071l.544-1.287h.017v.955c0,.229-.008.244-.2.26v.087Zm1.626,0h-.7v-.087c.143-.024.158-.048.118-.158-.023-.078-.062-.181-.1-.276h-.474c-.024.071-.056.158-.087.26-.04.118-.032.15.149.174v.087h-.553v-.087c.166-.016.2-.048.276-.252l.506-1.271.127-.031c.156.434.307.86.473,1.286.079.221.11.253.269.269Zm-.734-.655h0l-.182-.537h-.008c-.071.182-.126.363-.2.537Zm.806-.947h0v.087c.165.016.188.032.188.245v.947c0,.205-.023.221-.205.245v.079h.766v-.079c-.213-.024-.236-.039-.236-.245V2897l.174.04a.533.533,0,0,0,.1-.008.511.511,0,0,0,.5-.513.434.434,0,0,0-.182-.363.756.756,0,0,0-.435-.095Zm.513.2h0a.1.1,0,0,1,.023-.079.2.2,0,0,1,.095-.024c.149,0,.308.094.308.371,0,.331-.2.394-.292.394a.337.337,0,0,1-.134-.024Zm2.391,1.4h0v-.087a.252.252,0,0,1-.253-.174c-.07-.15-.134-.292-.173-.363a.465.465,0,0,0-.316-.26h0a.64.64,0,0,0,.245-.284c.1-.213.158-.26.253-.26h.047a.1.1,0,0,0,.1-.087c0-.071-.055-.126-.149-.126-.118,0-.206.079-.293.26a1,1,0,0,1-.205.363.391.391,0,0,1-.3.11v-.347c0-.237.016-.244.206-.26v-.087h-.742v.087c.189.016.205.024.205.26v.908c0,.237-.016.244-.205.26v.087h.742v-.087c-.19-.016-.206-.024-.206-.26v-.466c.127,0,.229.047.3.245.048.142.1.268.135.339a.315.315,0,0,0,.323.229Zm1.595,0h-.7v-.087c.143-.024.158-.048.118-.158-.023-.078-.062-.181-.1-.276h-.474c-.024.071-.056.158-.088.26-.03.118-.03.15.15.174v.087h-.553v-.087c.166-.016.2-.048.276-.252l.506-1.271.125-.031c.158.434.316.86.475,1.286.086.221.118.253.269.269Zm-.727-.655h0l-.189-.537h-.008c-.063.182-.126.363-.189.537Z" transform="translate(-4809.644 -2873.146)" fill-rule="evenodd"/>
    <path id="Path_127" data-name="Path 127" d="M3515.294,1391.17v1.8a3.255,3.255,0,0,0,.032.552.365.365,0,0,0,.1.2.324.324,0,0,0,.229.079h.11v.15l-1.768.024v-.134h.1a.357.357,0,0,0,.245-.087.458.458,0,0,0,.1-.2,2.631,2.631,0,0,0,.031-.505v-3.527a2.459,2.459,0,0,0-.031-.5.168.168,0,0,0-.111-.118.269.269,0,0,0-.229.047c-.04.024-.079.04-.1.055v-.126c.584-.331,1.176-.663,1.775-.963v.15a.8.8,0,0,1-.118.055.677.677,0,0,0-.237.213.825.825,0,0,0-.1.253,3.877,3.877,0,0,0-.024.56c0,.545,0,1.089-.008,1.642.41-.11.8-.229,1.215-.332v-1.807a4.3,4.3,0,0,0-.023-.6.283.283,0,0,0-.118-.166.2.2,0,0,0-.221.008c-.04.016-.079.04-.11.055v-.158q.888-.414,1.775-.781v.182a.944.944,0,0,1-.11.039.489.489,0,0,0-.237.2.886.886,0,0,0-.11.284,4.945,4.945,0,0,0-.024.639c0,.742-.008,1.476-.008,2.218v2.218a5.015,5.015,0,0,0,.024.647.449.449,0,0,0,.11.221.25.25,0,0,0,.229.095h.111v.181c-.592,0-1.184.008-1.776.016v-.158a.509.509,0,0,0,.11-.008.28.28,0,0,0,.237-.1.518.518,0,0,0,.11-.229,4.2,4.2,0,0,0,.023-.592c0-.663.008-1.326.008-1.981C3516.1,1390.965,3515.7,1391.068,3515.294,1391.17Zm4.909-5.082h0c.552-.182.979.016,1.31.726a4.609,4.609,0,0,1,.379,1.278,10.421,10.421,0,0,1,.126,1.657,10.9,10.9,0,0,1-.095,1.476,7.082,7.082,0,0,1-.292,1.3c-.331,1.042-.8,1.555-1.42,1.555s-1.081-.45-1.413-1.318a5.211,5.211,0,0,1-.3-1.113,8.226,8.226,0,0,1-.095-1.294,8.74,8.74,0,0,1,.126-1.484,6.409,6.409,0,0,1,.394-1.318A2.312,2.312,0,0,1,3520.2,1386.088Zm.023.355h0c-.308.095-.545.529-.71,1.279a11.6,11.6,0,0,0-.213,2.509,16.094,16.094,0,0,0,.079,1.642,5.3,5.3,0,0,0,.229,1.152c.142.418.339.631.592.631a.517.517,0,0,0,.434-.3,3.434,3.434,0,0,0,.347-1.208,15.762,15.762,0,0,0,.134-2.17,16.805,16.805,0,0,0-.118-2.344,2.533,2.533,0,0,0-.324-1.01A.4.4,0,0,0,3520.226,1386.443Zm4.474,2.715h0a1.522,1.522,0,0,1,.679.655,3.488,3.488,0,0,1,.276,1.563,3.978,3.978,0,0,1-.308,1.7,1.194,1.194,0,0,1-1.1.813c-.576.008-1.152.008-1.728.008v-.213a.358.358,0,0,0,.316-.118.669.669,0,0,0,.126-.284,6.394,6.394,0,0,0,.032-.876c.008-.923.008-1.839.008-2.762v-2.77a6.915,6.915,0,0,0-.024-.868.505.505,0,0,0-.126-.26c-.055-.055-.158-.071-.315-.031v-.213c.544-.134,1.089-.268,1.634-.395a.917.917,0,0,1,.82.095,1.549,1.549,0,0,1,.387.75,4.378,4.378,0,0,1,.142,1.144,3.746,3.746,0,0,1-.182,1.192A1.846,1.846,0,0,1,3524.7,1389.158Zm-.916-.063h0a.762.762,0,0,0,.529-.268,1.568,1.568,0,0,0,.26-.624,5.192,5.192,0,0,0,.008-1.933,1.146,1.146,0,0,0-.252-.521.575.575,0,0,0-.545-.079v3.425Zm-.008.505h0v3.109a1.4,1.4,0,0,0,.071.513c.039.118.1.174.2.174a.454.454,0,0,0,.363-.237,1.724,1.724,0,0,0,.253-.678,5.325,5.325,0,0,0,.095-.987,5.835,5.835,0,0,0-.095-1.1,1.18,1.18,0,0,0-.3-.663A.676.676,0,0,0,3523.777,1389.6Zm4.041-.853h0c.15-.016.292-.031.442-.039a.993.993,0,0,1,1.058.639,4.552,4.552,0,0,1,.331,1.918,5.462,5.462,0,0,1-.166,1.428,2.2,2.2,0,0,1-.426.884.9.9,0,0,1-.734.292c-.607,0-1.215.008-1.823.008v-.237a.408.408,0,0,0,.4-.237,2.989,2.989,0,0,0,.094-.955v-3.07c.008-1.026.008-2.052.008-3.078a4.93,4.93,0,0,0-.079-1.207c-.047-.134-.174-.189-.386-.158v-.237c.576-.111,1.16-.2,1.744-.292v.245a.426.426,0,0,0-.316.174.893.893,0,0,0-.118.308,6.554,6.554,0,0,0-.031.876Zm0,.608h0v2.833a4.368,4.368,0,0,0,.063.939c.047.182.126.276.244.276.2,0,.347-.189.45-.56a5.337,5.337,0,0,0,.15-1.389,5.69,5.69,0,0,0-.134-1.333,1.341,1.341,0,0,0-.308-.663A.646.646,0,0,0,3527.818,1389.355Zm3.535,4.254h-.1a.242.242,0,0,1-.244-.158.8.8,0,0,1-.1-.363c-.016-.134-.024-.426-.024-.892v-6.439q0-.675.024-.9a1.2,1.2,0,0,1,.1-.371.28.28,0,0,1,.244-.174c.032-.008.071-.008.111-.016v-.252c-.592.063-1.184.118-1.776.189v.245a.468.468,0,0,0,.111-.016.24.24,0,0,1,.245.134.851.851,0,0,1,.1.347c.016.134.024.426.024.884v6.384c0,.45-.016.75-.024.892a.97.97,0,0,1-.11.363.254.254,0,0,1-.237.15.582.582,0,0,1-.118,0v.253c.592,0,1.184-.008,1.776-.008Zm3.149-8.089h0a6.264,6.264,0,0,0-.063-1.089c-.048-.189-.15-.284-.323-.276h-.111v-.252c.6-.016,1.207-.024,1.815-.032v.26h-.119c-.157-.008-.26.087-.308.268a5.113,5.113,0,0,0-.079,1.176c0,1.1.008,2.194.008,3.291v3.291a5.145,5.145,0,0,0,.079,1.184.3.3,0,0,0,.308.26h.118v.261h-1.823v-.253h.111a.319.319,0,0,0,.315-.276,5.789,5.789,0,0,0,.079-1.176c0-.9-.008-1.807-.008-2.715v-2.715c-.2.923-.394,1.847-.6,2.77s-.394,1.854-.6,2.77a6.147,6.147,0,0,0,.063,1.026c.04.205.142.316.324.316h.118v.253h-1.823v-.253h.11a.311.311,0,0,0,.308-.268,5.023,5.023,0,0,0,.087-1.16v-6.51a6.562,6.562,0,0,0-.063-1.16.287.287,0,0,0-.331-.245c-.031,0-.071.008-.11.008v-.252c.6-.048,1.208-.079,1.815-.111v.252a.582.582,0,0,1-.118.008q-.225.012-.308.308a5.975,5.975,0,0,0-.07,1.152v5.445c.205-.923.4-1.847.6-2.77S3534.3,1386.451,3534.5,1385.52Zm5.769-1.618h0v1.7c.008.56,0,1.121.008,1.681h-.1a7,7,0,0,0-.418-2.075c-.2-.489-.418-.75-.679-.765-.213-.016-.4.15-.576.489a4.253,4.253,0,0,0-.387,1.381,17.7,17.7,0,0,0-.15,2.446,22.735,22.735,0,0,0,.119,2.431,6.239,6.239,0,0,0,.363,1.657c.166.371.379.56.639.56a.725.725,0,0,0,.584-.4,5.5,5.5,0,0,0,.561-1.381v.836a3.939,3.939,0,0,1-.592,1.239.891.891,0,0,1-.719.386,1.181,1.181,0,0,1-.97-.631,5.191,5.191,0,0,1-.655-1.839,13.708,13.708,0,0,1-.229-2.541,13.943,13.943,0,0,1,.245-2.691,5.841,5.841,0,0,1,.679-1.949c.284-.45.592-.671.916-.647a1.193,1.193,0,0,1,.757.513c.15.189.252.284.292.284.055.008.1-.047.142-.158a2.227,2.227,0,0,0,.071-.529C3540.2,1383.894,3540.239,1383.9,3540.271,1383.9Zm3.559.758h0c.008.829.008,1.665.008,2.494-.024-.008-.055-.008-.087-.016a9.784,9.784,0,0,0-.182-1.263,1.82,1.82,0,0,0-.268-.647.475.475,0,0,0-.331-.181c-.087-.016-.174-.031-.26-.04.008,1.208.008,2.423.016,3.63s.008,2.423.008,3.63a8.648,8.648,0,0,0,.032.907.979.979,0,0,0,.118.323.254.254,0,0,0,.221.134.6.6,0,0,1,.118.008v.237c-.6-.008-1.192-.008-1.775-.008v-.245h.11a.272.272,0,0,0,.237-.15.973.973,0,0,0,.1-.339c.016-.111.023-.41.023-.892,0-1.223-.008-2.446-.016-3.67s-.008-2.454-.008-3.677c-.087-.016-.166-.023-.245-.039a.445.445,0,0,0-.5.355,5.494,5.494,0,0,0-.268,1.61.457.457,0,0,0-.1-.008c0-.868,0-1.744-.008-2.612C3541.794,1384.328,3542.812,1384.486,3543.83,1384.66Zm3.007,2.075h0a5.523,5.523,0,0,0-.071-.955.413.413,0,0,0-.323-.323.455.455,0,0,1-.111-.032v-.221c.6.158,1.215.324,1.823.5v.213c-.039-.016-.079-.024-.118-.04a.226.226,0,0,0-.308.142,3.866,3.866,0,0,0-.071.963c0,.915,0,1.831.008,2.746s.008,1.831.016,2.746a3.7,3.7,0,0,0,.079.994.306.306,0,0,0,.308.221h.118v.213c-.608-.008-1.216-.008-1.823-.008v-.229h.118a.289.289,0,0,0,.308-.229,4.374,4.374,0,0,0,.071-1c0-.773-.008-1.555-.008-2.328s-.008-1.554-.016-2.336c-.2.758-.387,1.523-.584,2.3s-.4,1.586-.592,2.391a5.058,5.058,0,0,0,.055.916.324.324,0,0,0,.331.284h.119v.221c-.616,0-1.223,0-1.831-.008v-.229h.118a.312.312,0,0,0,.316-.253,4.774,4.774,0,0,0,.071-1.05c-.008-.994-.008-1.981-.016-2.975s-.008-1.981-.008-2.975a6.351,6.351,0,0,0-.072-1.073.385.385,0,0,0-.331-.316c-.031-.008-.071-.008-.11-.016v-.237q.911.189,1.823.4v.221l-.118-.024a.241.241,0,0,0-.308.189,4.4,4.4,0,0,0-.071,1c.008.813.015,1.618.015,2.431s0,1.618.008,2.423c.2-.8.387-1.586.592-2.367S3546.639,1387.485,3546.837,1386.735Zm5.3.544h0c-.19-.079-.308-.063-.363.031a1.59,1.59,0,0,0-.071.655v2.438c0,.813.008,1.626.008,2.431a1.973,1.973,0,0,0,.087.734c.047.118.173.174.363.182v.181c-.568-.008-1.144-.008-1.712-.016v-.189a.451.451,0,0,0,.292-.071.419.419,0,0,0,.119-.245,2.785,2.785,0,0,0,.031-.592c0-.955,0-1.91-.008-2.865s-.008-1.91-.008-2.865c-.277-.094-.544-.189-.813-.276,0,.758,0,1.507.008,2.265,0,.947-.008,1.673-.024,2.163a8.918,8.918,0,0,1-.173,1.412,2.8,2.8,0,0,1-.363,1,.615.615,0,0,1-.5.347q-.237,0-.379-.308a2.143,2.143,0,0,1-.142-.766,1.886,1.886,0,0,1,.087-.616c.055-.158.134-.229.244-.221.189.016.292.3.316.852.008.253.055.379.134.379.1.008.205-.158.323-.473a4.8,4.8,0,0,0,.237-1.3q.06-.829.047-2.415c0-.481,0-.963-.008-1.444a6.465,6.465,0,0,0-.032-.836.742.742,0,0,0-.134-.347.757.757,0,0,0-.347-.221v-.205c.923.316,1.846.663,2.778,1.026Zm1.768,3.346h0c.15.032.3.071.45.111a1.8,1.8,0,0,1,1.058.695,1.906,1.906,0,0,1,.332,1.128,1.624,1.624,0,0,1-.166.758,1.26,1.26,0,0,1-.418.481,1.462,1.462,0,0,1-.742.158l-1.823-.024v-.166c.213-.008.347-.055.41-.158a1.65,1.65,0,0,0,.087-.663c-.008-.71-.008-1.428-.008-2.138s-.008-1.428-.008-2.139a3.022,3.022,0,0,0-.079-.876.653.653,0,0,0-.394-.323v-.174c.583.245,1.176.513,1.768.781v.15c-.166-.071-.269-.094-.324-.063a.191.191,0,0,0-.111.142,2.2,2.2,0,0,0-.04.544C3553.9,1389.442,3553.9,1390.034,3553.907,1390.625Zm0,.395h0v1.831a1.832,1.832,0,0,0,.071.615.269.269,0,0,0,.252.189.465.465,0,0,0,.442-.324,2,2,0,0,0,.15-.813,2.223,2.223,0,0,0-.142-.829,1.069,1.069,0,0,0-.3-.481A1.334,1.334,0,0,0,3553.907,1391.02Z" transform="translate(-3488.155 -1372.862)" fill-rule="evenodd"/>
    <path id="Path_128" data-name="Path 128" d="M6044.278,905a4.771,4.771,0,0,1-.474,1.428c-.331.576-.8.844-.8,1.207s.362.41.481.41.442.032.749-.552A4.625,4.625,0,0,0,6044.278,905Z" transform="translate(-5997.19 -897.858)" fill-rule="evenodd"/>
    <path id="Path_129" data-name="Path 129" d="M3685.031,3887.142h-6.889v13.913h5.753v-12.422l1.136-.031Zm-6.96-.142h7.1v1.752l-1.136.024V3901.2H3678V3887Z" transform="translate(-3650.191 -3856.325)" fill-rule="evenodd"/>
    <line id="Line_24" data-name="Line 24" x2="0.008" transform="translate(28.922 32.884)" fill="none" stroke="#b3b3b3" stroke-width="7.903"/>
    <path id="Path_130" data-name="Path 130" d="M3789.2,4957H3784v4.925h5.154V4957Zm-4.972.237h4.861v4.451h-4.861Z" transform="translate(-3755.363 -4917.881)" fill-rule="evenodd"/>
    <path id="Path_131" data-name="Path 131" d="M3785.1,3992.623a3.37,3.37,0,0,1,1.642-.387,2.024,2.024,0,0,1,1.5.568c.276.213.339.426.813.56v5.358l-4.83.017v-5.6a.947.947,0,0,1-.142.039l-.087.024v5.777h5.2V3993.2l-.087-.024c-.473-.118-.45-.339-.718-.552a2.482,2.482,0,0,0-3.291,0Z" transform="translate(-3755.363 -3960.496)" fill-rule="evenodd"/>
    <path id="Path_132" data-name="Path 132" d="M4432.031,4094.142h-6.89v13.913h4.759l.04-12.3,2.091-.032Zm-6.96-.142h7.1v1.886l-2.123.023v12.3H4425V4094Z" transform="translate(-4391.543 -4061.691)" fill-rule="evenodd"/>
    <line id="Line_25" data-name="Line 25" x2="0.008" transform="translate(34.588 34.518)" fill="none" stroke="#b3b3b3" stroke-width="7.903"/>
    <path id="Path_133" data-name="Path 133" d="M4535.175,5165H4531v4.916h4.23V5165Zm-3.945.229h3.827v4.458l-3.827-.008Z" transform="translate(-4496.694 -5124.24)" fill-rule="evenodd"/>
    <path id="Path_134" data-name="Path 134" d="M4532.1,4200.615a3.39,3.39,0,0,1,1.649-.386,2.055,2.055,0,0,1,1.5.568c.268.221-.624.441-.158.576v5.359h-3.866v-5.6c-.048.015-.088.032-.143.047l-.087.016v5.776h4.333v-5.682l-.04-.268.585-.095c-.474-.119-.213-.1-.482-.309a2.234,2.234,0,0,0-1.641-.615A2.257,2.257,0,0,0,4532.1,4200.615Z" transform="translate(-4496.705 -4166.855)" fill-rule="evenodd"/>
    <path id="Path_135" data-name="Path 135" d="M5053.031,4317.149h-6.881v13.913h5.106l-.086-12.808h1.846Zm-6.952-.149h7.1v1.254l-1.893.158.118,12.722v.07H5046V4317Z" transform="translate(-5007.849 -4282.932)" fill-rule="evenodd"/>
    <line id="Line_26" data-name="Line 26" y1="0.008" transform="translate(39.307 36.277)" fill="none" stroke="#b3b3b3" stroke-width="7.903"/>
    <path id="Path_136" data-name="Path 136" d="M5156.451,5388H5152v4.917h4.569V5388Zm-4.214.237h4.1v4.451h-4.1Z" transform="translate(-5112.999 -5345.479)" fill-rule="evenodd"/>
    <path id="Path_137" data-name="Path 137" d="M5153.1,4423.616a3.506,3.506,0,0,1,1.649-.379,2.07,2.07,0,0,1,1.5.561c.07.063-.04,5.216.079,5.941h-4.1v-5.61c-.048.016-.095.031-.15.047l-.087.024v5.768h4.569v-.118c-.134-.821.016-6.084-.174-6.234a2.215,2.215,0,0,0-1.641-.616A2.251,2.251,0,0,0,5153.1,4423.616Z" transform="translate(-5112.999 -4388.095)" fill-rule="evenodd"/>
    <line id="Line_27" data-name="Line 27" transform="translate(49.152 37.58)" fill="none" stroke="#b3b3b3" stroke-width="7.903"/>
    <path id="Path_138" data-name="Path 138" d="M2637.758,3372.515a.757.757,0,1,0-.758-.757A.757.757,0,0,0,2637.758,3372.515Z" transform="translate(-2617.01 -3344.397)" fill-rule="evenodd"/>
    <path id="Path_139" data-name="Path 139" d="M5706.079,4482h7.1v14.2H5706V4482Zm6.953.142h-6.882v13.913h6.882Z" transform="translate(-5662.857 -4446.63)" fill-rule="evenodd"/>
    <path id="Path_140" data-name="Path 140" d="M5701.119,4476h7.142v14.291H5701V4476Zm6.913.236h-6.794v13.826h6.794Z" transform="translate(-5657.897 -4440.678)" fill-rule="evenodd"/>
    <path id="Path_141" data-name="Path 141" d="M5812.118,5552h5.39v4.924H5812V5552Zm5.154.236h-5.035v4.451h5.035Z" transform="translate(-5768.021 -5508.187)" fill-rule="evenodd"/>
    <path id="Path_142" data-name="Path 142" d="M5816.4,4587.624a3.408,3.408,0,0,0-1.649-.387,2.036,2.036,0,0,0-1.5.568,2.779,2.779,0,0,1-1.018.576v5.357h5.035v-5.6a.786.786,0,0,0,.149.04l.087.024v5.777H5812V4588.2l.087-.024a2.471,2.471,0,0,0,1.026-.552,2.219,2.219,0,0,1,1.641-.624A2.255,2.255,0,0,1,5816.4,4587.624Z" transform="translate(-5768.021 -4550.801)" fill-rule="evenodd"/>
  </g>
</svg>
